<svg width="137" height="58" viewBox="0 0 137 58" fill="none" xmlns="http://www.w3.org/2000/svg">
<g id="navTextAbout">
<g id="aboutGroup">
<path id="about1" d="M19.57 37.975H10.82L9.49 42H2.28L11.275 17.325H19.185L28.145 42H20.9L19.57 37.975ZM17.855 32.725L15.195 24.745L12.57 32.725H17.855Z" fill="#3D8BFD"/>
<path id="about2" d="M46.71 29.33C48.1567 29.6567 49.3 30.38 50.14 31.5C51.0033 32.5967 51.435 33.8567 51.435 35.28C51.435 37.38 50.7117 39.025 49.265 40.215C47.8183 41.405 45.7883 42 43.175 42H30.96V17.325H42.79C45.31 17.325 47.2817 17.885 48.705 19.005C50.1517 20.125 50.875 21.7 50.875 23.73C50.875 25.1767 50.49 26.39 49.72 27.37C48.9733 28.3267 47.97 28.98 46.71 29.33ZM37.82 27.125H41.285C43.0117 27.125 43.875 26.4133 43.875 24.99C43.875 23.52 43.0117 22.785 41.285 22.785H37.82V27.125ZM41.81 36.47C43.5367 36.47 44.4 35.7467 44.4 34.3C44.4 33.5533 44.1667 32.9817 43.7 32.585C43.2567 32.1883 42.615 31.99 41.775 31.99H37.82V36.47H41.81Z" fill="#3D8BFD"/>
<path id="about3" d="M66.79 42.245C64.48 42.245 62.3567 41.7083 60.42 40.635C58.4833 39.5383 56.9433 38.0333 55.8 36.12C54.68 34.1833 54.12 32.0017 54.12 29.575C54.12 27.1483 54.68 24.9783 55.8 23.065C56.9433 21.1283 58.4833 19.6233 60.42 18.55C62.3567 17.4767 64.48 16.94 66.79 16.94C69.1233 16.94 71.2467 17.4767 73.16 18.55C75.0967 19.6233 76.625 21.1283 77.745 23.065C78.865 24.9783 79.425 27.1483 79.425 29.575C79.425 32.0017 78.865 34.1833 77.745 36.12C76.625 38.0333 75.0967 39.5383 73.16 40.635C71.2233 41.7083 69.1 42.245 66.79 42.245ZM66.79 35.875C68.54 35.875 69.9167 35.3033 70.92 34.16C71.9467 33.0167 72.46 31.4883 72.46 29.575C72.46 27.615 71.9467 26.075 70.92 24.955C69.9167 23.8117 68.54 23.24 66.79 23.24C65.0167 23.24 63.6283 23.8117 62.625 24.955C61.6217 26.075 61.12 27.615 61.12 29.575C61.12 31.5117 61.6217 33.0517 62.625 34.195C63.6283 35.315 65.0167 35.875 66.79 35.875Z" fill="#3D8BFD"/>
<path id="about4" d="M89.68 17.325V31.64C89.68 32.97 89.9833 33.9967 90.59 34.72C91.22 35.4433 92.165 35.805 93.425 35.805C94.685 35.805 95.63 35.4433 96.26 34.72C96.9133 33.9733 97.24 32.9467 97.24 31.64V17.325H104.1V31.64C104.1 33.9033 103.622 35.84 102.665 37.45C101.708 39.0367 100.402 40.2383 98.745 41.055C97.1117 41.8483 95.2917 42.245 93.285 42.245C91.2783 42.245 89.4817 41.8483 87.895 41.055C86.3317 40.2383 85.095 39.0367 84.185 37.45C83.2983 35.8633 82.855 33.9267 82.855 31.64V17.325H89.68Z" fill="#3D8BFD"/>
<path id="about5" d="M126.545 17.325V22.785H119.965V42H113.105V22.785H106.595V17.325H126.545Z" fill="#3D8BFD"/>
</g>
</g>
</svg>
