<svg width="328" height="633" viewBox="0 0 328 633" fill="none" xmlns="http://www.w3.org/2000/svg">
<g clip-path="url(#clip0_11_2)" filter="url(#filter0_d_11_2)">
<path fill-rule="evenodd" clip-rule="evenodd" d="M678.946 338.486V338.486L678.657 346.895L678.484 355.296L678.426 363.703L678.483 372.134L678.65 380.603L678.923 389.126L679.295 397.717L679.76 406.387L680.307 415.148L680.927 424.009L681.609 432.979L682.338 442.062L683.103 451.263L683.889 460.581L684.678 470.015L685.455 479.561L686.201 489.211L686.899 498.954L687.532 508.778L688.082 518.668L688.533 528.606L688.87 538.573L689.078 548.549L689.145 558.513L689.06 568.443L688.814 578.316L688.4 588.11L687.81 597.803L687.039 607.37L686.083 616.789L684.937 626.035L683.599 635.086L682.069 643.919L680.346 652.514L678.431 660.848L676.327 668.904L674.038 676.661L671.566 684.104L668.919 691.217L666.1 697.986L663.118 704.398L659.98 710.443L656.695 716.112L653.27 721.399L649.716 726.3L646.044 730.812L642.262 734.934L638.383 738.671L634.418 742.024L630.378 745.002L626.275 747.612L622.119 749.867L617.924 751.778L613.7 753.361L609.459 754.632L605.211 755.609L600.967 756.313L596.738 756.765L592.532 756.986L588.359 757L584.227 756.83L580.144 756.502L576.115 756.038L572.149 755.462L568.249 754.8L564.419 754.074L560.664 753.306L556.986 752.517L553.386 751.727L549.866 750.955L546.425 750.217L543.063 749.528L539.779 748.9L536.57 748.345L533.435 747.87L530.369 747.483L527.37 747.187L524.434 746.985L521.556 746.878L518.733 746.865L515.961 746.943L513.235 747.108L510.55 747.355L507.903 747.675L505.289 748.061L502.703 748.498L500.142 748.971L497.601 749.46L495.076 749.943L492.562 750.397L490.058 750.797L487.559 751.119L485.066 751.339L482.575 751.435L480.088 751.386L477.603 751.175L475.122 750.789L472.647 750.219L470.178 749.456L467.719 748.496L465.271 747.333L462.836 745.966L460.418 744.395L458.018 742.62L455.639 740.646L453.284 738.478L450.955 736.123L448.654 733.592L446.384 730.897L444.145 728.051L441.94 725.068L439.769 721.967L437.633 718.766L435.533 715.483L433.468 712.14L431.437 708.757L429.44 705.356L427.474 701.958L425.537 698.587L423.628 695.263L421.741 692.007L419.875 688.84L418.024 685.782L416.186 682.852L414.353 680.067L412.523 677.443L410.689 674.995L408.845 672.736L406.987 670.677L405.108 668.827L403.202 667.195L401.263 665.785L399.286 664.601L397.265 663.645L395.194 662.916L393.067 662.413L390.881 662.129L388.629 662.059L386.308 662.195L383.913 662.526L381.441 663.041L378.889 663.726L376.254 664.565L373.535 665.543L370.729 666.642L367.837 667.843L364.857 669.126L361.79 670.47L358.638 671.854L355.401 673.258L352.082 674.659L348.683 676.036L345.208 677.367L341.66 678.631L338.042 679.808L334.36 680.877L330.619 681.817L326.825 682.607L322.985 683.225L319.106 683.648L315.2 683.853L311.275 683.817L307.342 683.517L303.414 682.931L299.503 682.038L295.623 680.817L291.787 679.25L288.012 677.319L284.313 675.006L280.705 672.297L277.206 669.18L273.83 665.647L270.594 661.693L267.511 657.317L264.596 652.52L261.861 647.308L259.317 641.69L256.976 635.677L254.846 629.285L252.934 622.532L251.246 615.438L249.786 608.026L248.556 600.324L247.557 592.356L246.786 584.154L246.24 575.747L245.913 567.166L245.799 558.442L245.888 549.607L246.17 540.692L246.632 531.728L247.26 522.743L248.04 513.767L248.956 504.824L249.99 495.94L251.125 487.137L252.341 478.434L253.621 469.849L254.944 461.396L256.292 453.087L257.644 444.931L258.982 436.932L260.287 429.096L261.542 421.42L262.727 413.903L263.828 406.539L264.829 399.32L265.716 392.235L266.475 385.271L267.095 378.414L267.566 371.647L267.879 364.952L268.028 358.309L268.007 351.698L267.812 345.098L267.442 338.486L266.896 331.84L266.176 325.139L265.285 318.361L264.228 311.485L263.012 304.49L261.646 297.359L260.139 290.073L258.503 282.617L256.751 274.978L254.899 267.144L252.96 259.106L250.953 250.858L248.893 242.395L246.801 233.717L244.697 224.826L242.602 215.729L240.539 206.435L238.53 196.958L236.598 187.314L234.765 177.523L233.055 167.609L231.487 157.597L230.082 147.514L228.858 137.392L227.833 127.262L227.022 117.158L226.438 107.113L226.094 97.1633L226 87.3445L226.164 77.693L226.594 68.2447L227.294 59.0352L228.268 50.0994L229.515 41.4706L231.036 33.1805L232.826 25.2586L234.882 17.7316L237.195 10.6237L239.756 3.95552L242.554 -2.25573L245.578 -7.99658L248.812 -13.2575L252.242 -18.0332L255.851 -22.3224L259.62 -26.1282L263.532 -29.4581L267.567 -32.3237L271.706 -34.7409L275.928 -36.7296L280.215 -38.3138L284.544 -39.5212L288.899 -40.3828L293.258 -40.9331L297.604 -41.2095L301.918 -41.2519L306.186 -41.1025L310.389 -40.8055L314.515 -40.4064L318.55 -39.9518L322.482 -39.4891L326.301 -39.0656L329.999 -38.7285L333.569 -38.5243L337.004 -38.4982L340.302 -38.6939L343.46 -39.1529L346.479 -39.9142L349.358 -41.0142L352.101 -42.4858L354.712 -44.3582L357.197 -46.6567L359.563 -49.4025L361.818 -52.6121L363.972 -56.2974L366.035 -60.4653L368.017 -65.1178L369.932 -70.2517L371.791 -75.8587L373.607 -81.9257L375.393 -88.4343L377.164 -95.3616L378.931 -102.68L380.707 -110.358L382.505 -118.36L384.337 -126.647L386.215 -135.174L388.148 -143.894L390.148 -152.755L392.222 -161.703L394.379 -170.682L396.626 -179.635L398.967 -188.503L401.407 -197.228L403.949 -205.753L406.593 -214.025L409.339 -221.99L412.186 -229.601L415.13 -236.812L418.169 -243.583L421.296 -249.873L424.507 -255.647L427.794 -260.869L431.15 -265.511L434.566 -269.546L438.034 -272.949L441.545 -275.703L445.088 -277.792L448.654 -279.207L452.233 -279.943L455.813 -280L459.386 -279.382L462.941 -278.099L466.468 -276.165L469.958 -273.6L473.402 -270.428L476.793 -266.675L480.124 -262.375L483.387 -257.563L486.579 -252.278L489.693 -246.561L492.728 -240.458L495.681 -234.015L498.552 -227.279L501.34 -220.301L504.046 -213.13L506.674 -205.816L509.228 -198.41L511.711 -190.961L514.13 -183.516L516.492 -176.122L518.803 -168.824L521.073 -161.664L523.311 -154.68L525.526 -147.91L527.729 -141.386L529.929 -135.137L532.139 -129.19L534.368 -123.565L536.627 -118.281L538.928 -113.35L541.28 -108.783L543.694 -104.583L546.178 -100.751L548.743 -97.2853L551.395 -94.1771L554.143 -91.4154L556.992 -88.9849L559.948 -86.867L563.015 -85.0391L566.194 -83.4755L569.489 -82.1474L572.899 -81.0228L576.421 -80.0674L580.054 -79.2449L583.792 -78.5177L587.631 -77.847L591.562 -77.1938L595.578 -76.5187L599.67 -75.7829L603.826 -74.9481L608.036 -73.9774L612.286 -72.835L616.564 -71.487L620.857 -69.9018L625.15 -68.0502L629.428 -65.9057L633.678 -63.445L637.885 -60.6481L642.036 -57.4985L646.116 -53.9834L650.113 -50.0925L654.013 -45.8176L657.803 -41.1533L661.472 -36.0966L665.006 -30.6469L668.394 -24.8066L671.626 -18.5808L674.69 -11.9769L677.58 -5.00458L680.285 2.32408L682.799 9.99509L685.116 17.9925L687.23 26.2985L689.137 34.8937L690.836 43.7574L692.324 52.8673L693.601 62.2003L694.668 71.7323L695.529 81.4385L696.186 91.2938L696.646 101.273L696.914 111.35L697 121.5L696.912 131.7L696.661 141.924L696.258 152.151L695.717 162.359L695.05 172.528L694.272 182.639L693.399 192.678L692.445 202.628L691.427 212.478L690.362 222.217L689.265 231.839L688.153 241.338L687.041 250.711L685.946 259.958L684.881 269.08L683.862 278.082L682.901 286.97L682.01 295.753L681.201 304.439L680.483 313.042L679.863 321.575L679.35 330.051L678.946 338.486" fill="url(#paint0_linear_11_2)"/>
<path fill-rule="evenodd" clip-rule="evenodd" d="M-419.545 252.024L-421.578 242.87L-423.526 233.666L-425.389 224.416L-427.166 215.125L-428.855 205.797L-430.458 196.437L-431.972 187.051L-433.399 177.641L-434.738 168.214L-435.988 158.773L-437.151 149.322L-438.226 139.867L-439.215 130.411L-440.116 120.958L-440.932 111.512L-441.662 102.077L-442.307 92.6562L-442.869 83.254L-443.347 73.8735L-443.742 64.5181L-444.056 55.1911L-444.289 45.8955L-444.443 36.6345L-444.517 27.4109L-444.512 18.2277L-444.431 9.08762L-444.273 -0.00664972L-444.038 -9.05238L-443.729 -18.047L-443.345 -26.9881L-442.888 -35.8731L-442.357 -44.6995L-441.755 -53.465L-441.08 -62.1671L-440.334 -70.8035L-439.518 -79.3717L-438.631 -87.8694L-437.675 -96.2942L-436.65 -104.644L-435.555 -112.916L-434.393 -121.108L-433.162 -129.217L-431.863 -137.242L-430.497 -145.18L-429.064 -153.027L-427.564 -160.782L-425.998 -168.442L-424.365 -176.004L-422.665 -183.466L-420.899 -190.824L-419.067 -198.075L-417.169 -205.218L-415.206 -212.248L-413.176 -219.163L-411.081 -225.96L-408.921 -232.636L-406.696 -239.187L-404.406 -245.611L-402.052 -251.905L-399.635 -258.065L-397.153 -264.089L-394.609 -269.974L-392.003 -275.717L-389.335 -281.315L-386.606 -286.766L-383.818 -292.067L-380.97 -297.215L-378.064 -302.208L-375.102 -307.045L-372.084 -311.723L-369.012 -316.241L-365.887 -320.597L-362.71 -324.789L-359.484 -328.816L-356.209 -332.677L-352.888 -336.373L-349.522 -339.901L-346.113 -343.262L-342.664 -346.456L-339.175 -349.482L-335.649 -352.343L-332.089 -355.037L-328.496 -357.566L-324.872 -359.932L-321.22 -362.135L-317.542 -364.178L-313.84 -366.061L-310.115 -367.787L-306.371 -369.358L-302.609 -370.773L-298.829 -372.034L-295.035 -373.143L-291.227 -374.1L-287.407 -374.905L-283.576 -375.56L-279.736 -376.065L-275.887 -376.419L-272.032 -376.625L-268.17 -376.681L-264.305 -376.588L-260.436 -376.348L-256.565 -375.958L-252.693 -375.422L-248.821 -374.737L-244.951 -373.906L-241.083 -372.929L-237.22 -371.805L-233.362 -370.537L-229.511 -369.124L-225.668 -367.569L-221.834 -365.871L-218.01 -364.033L-214.199 -362.056L-210.402 -359.942L-206.619 -357.692L-202.853 -355.311L-199.105 -352.799L-195.376 -350.159L-191.669 -347.396L-187.983 -344.512L-184.322 -341.512L-180.687 -338.399L-177.078 -335.178L-173.498 -331.854L-169.948 -328.433L-166.429 -324.919L-162.942 -321.32L-159.49 -317.64L-156.072 -313.886L-152.69 -310.063L-149.345 -306.179L-146.038 -302.237L-142.769 -298.244L-139.539 -294.206L-136.348 -290.127L-133.197 -286.014L-130.085 -281.871L-127.014 -277.703L-123.982 -273.515L-120.99 -269.313L-118.038 -265.099L-115.126 -260.879L-112.253 -256.656L-109.418 -252.435L-106.622 -248.218L-103.863 -244.009L-101.142 -239.812L-98.4566 -235.628L-95.807 -231.461L-93.1922 -227.313L-90.6114 -223.186L-88.0636 -219.082L-85.5481 -215.003L-83.0638 -210.95L-80.6098 -206.924L-78.1851 -202.927L-75.7887 -198.959L-73.4195 -195.021L-71.0767 -191.113L-68.7591 -187.235L-66.4657 -183.389L-64.1956 -179.573L-61.9477 -175.788L-59.7211 -172.033L-57.5147 -168.308L-55.3277 -164.612L-53.1589 -160.944L-51.0076 -157.305L-48.8728 -153.692L-46.7536 -150.106L-44.6491 -146.545L-42.5585 -143.008L-40.4811 -139.494L-38.4161 -136L-36.3627 -132.526L-34.3204 -129.07L-32.2886 -125.63L-30.2668 -122.203L-28.2543 -118.789L-26.2509 -115.385L-24.256 -111.989L-22.2694 -108.599L-20.2907 -105.213L-18.3197 -101.83L-16.356 -98.4473L-14.3997 -95.063L-12.4504 -91.6754L-10.5081 -88.2827L-8.57267 -84.8832L-6.64414 -81.4752L-4.72245 -78.0569L-2.80768 -74.6269L-0.89986 -71.1835L1.0009 -67.7251L2.89444 -64.2503L4.78059 -60.7576L6.65913 -57.2456L8.52978 -53.7128L10.3922 -50.158L12.2461 -46.5797L14.0911 -42.9766L15.9266 -39.3474L17.7521 -35.6908L19.5671 -32.0055L21.3708 -28.2903L23.1626 -24.5438L24.9416 -20.7649L26.707 -16.9524L28.4577 -13.105L30.1927 -9.22169L31.9109 -5.30136L33.6111 -1.34307L35.2922 2.65391L36.9529 6.69011L38.5921 10.766L40.2084 14.8819L41.8007 19.0381L43.3677 23.2343L44.9082 27.4705L46.4209 31.7464L47.9045 36.0616L49.3578 40.4154L50.7796 44.8072L52.1687 49.236L53.5238 53.7009L54.8438 58.2007L56.1275 62.7342L57.3738 67.3001L58.5817 71.8966L59.7499 76.5223L60.8777 81.1755L61.964 85.8543L63.0078 90.5568L64.0084 95.2809L64.965 100.024L65.8768 104.785L66.7431 109.562L67.5635 114.35L68.3374 119.149L69.0644 123.956L69.7441 128.769L70.3764 133.584L70.961 138.4L71.4979 143.214L71.9872 148.023L72.4291 152.825L72.8238 157.617L73.1717 162.397L73.4733 167.162L73.7291 171.911L73.94 176.641L74.1068 181.349L74.2303 186.033L74.3118 190.693L74.3525 195.325L74.3538 199.928L74.3175 204.501L74.2455 209.041L74.1401 213.549L74.0037 218.023L73.8387 222.463L73.648 226.868L73.4345 231.237L73.2013 235.573L72.9515 239.875L72.6885 244.144L72.4156 248.381L72.1364 252.589L71.8542 256.769L71.5727 260.925L71.2953 265.057L71.0256 269.17L70.767 273.268L70.523 277.353L70.2969 281.43L70.0918 285.503L69.9108 289.577L69.7569 293.657L69.6327 297.747L69.5407 301.852L69.4834 305.979L69.4627 310.132L69.4804 314.316L69.5381 318.538L69.637 322.802L69.7779 327.114L69.9616 331.479L70.1882 335.901L70.4576 340.386L70.7693 344.938L71.1225 349.562L71.516 354.26L71.9482 359.037L72.417 363.895L72.9202 368.837L73.4551 373.864L74.0191 378.978L74.609 384.181L75.2217 389.472L75.8535 394.852L76.5009 400.32L77.16 405.876L77.8268 411.518L78.4972 417.243L79.167 423.049L79.8317 428.934L80.487 434.892L81.1283 440.921L81.751 447.015L82.3507 453.17L82.9227 459.379L83.4624 465.636L83.9655 471.936L84.4274 478.27L84.8439 484.631L85.2105 491.013L85.5234 497.406L85.7784 503.802L85.9717 510.194L86.0998 516.571L86.1593 522.926L86.1468 529.249L86.0595 535.532L85.8946 541.764L85.6496 547.937L85.3222 554.042L84.9106 560.07L84.4131 566.011L83.8283 571.859L83.1551 577.603L82.3928 583.237L81.5408 588.751L80.5989 594.14L79.5673 599.395L78.4463 604.511L77.2367 609.481L75.9393 614.3L74.5554 618.963L73.0865 623.465L71.534 627.802L69.8997 631.969L68.1855 635.964L66.3933 639.782L64.5251 643.422L62.5833 646.879L60.5703 650.153L58.4884 653.242L56.3404 656.144L54.1289 658.858L51.8569 661.385L49.5272 663.725L47.1428 665.878L44.7069 667.846L42.2226 669.631L39.6931 671.235L37.1216 672.661L34.5114 673.913L31.8657 674.993L29.1879 675.908L26.481 676.66L23.7484 677.256L20.9931 677.7L18.2181 678L15.4266 678.16L12.6212 678.188L9.80487 678.089L6.98014 677.872L4.14953 677.542L1.31539 677.107L-1.52009 676.574L-4.35487 675.951L-7.18711 675.243L-10.0151 674.457L-12.8374 673.602L-15.6526 672.681L-18.4597 671.703L-21.2576 670.672L-24.0457 669.593L-26.8232 668.472L-29.5897 667.314L-32.3447 666.124L-35.0879 664.906L-37.819 663.666L-40.5382 662.407L-43.2452 661.136L-45.9403 659.856L-48.6237 658.571L-51.2958 657.286L-53.9569 656.005L-56.6077 654.731L-59.2488 653.467L-61.8809 652.218L-64.5049 650.986L-67.1216 649.773L-69.7321 648.583L-72.3374 647.417L-74.9387 646.277L-77.5371 645.164L-80.1339 644.081L-82.7303 643.027L-85.3277 642.003L-87.9275 641.01L-90.5309 640.048L-93.1395 639.115L-95.7546 638.212L-98.3777 637.338L-101.01 636.49L-103.653 635.668L-106.308 634.87L-108.977 634.093L-111.66 633.334L-114.359 632.592L-117.075 631.863L-119.809 631.144L-122.563 630.432L-125.337 629.722L-128.132 629.012L-130.95 628.297L-133.79 627.573L-136.654 626.836L-139.542 626.081L-142.454 625.304L-145.392 624.501L-148.356 623.668L-151.345 622.8L-154.36 621.894L-157.402 620.947L-160.47 619.955L-163.566 618.916L-166.688 617.827L-169.838 616.685L-173.015 615.487L-176.22 614.232L-179.453 612.916L-182.714 611.537L-186.003 610.093L-189.32 608.582L-192.665 607.001L-196.038 605.349L-199.44 603.622L-202.869 601.82L-206.327 599.938L-209.812 597.976L-213.325 595.93L-216.865 593.799L-220.433 591.579L-224.027 589.268L-227.647 586.865L-231.293 584.365L-234.964 581.767L-238.659 579.067L-242.378 576.264L-246.119 573.353L-249.882 570.333L-253.665 567.2L-257.467 563.952L-261.287 560.586L-265.123 557.099L-268.973 553.488L-272.836 549.75L-276.71 545.883L-280.593 541.884L-284.482 537.751L-288.376 533.481L-292.272 529.072L-296.167 524.522L-300.06 519.83L-303.947 514.994L-307.827 510.013L-311.697 504.886L-315.553 499.613L-319.394 494.192L-323.218 488.624L-327.02 482.91L-330.799 477.048L-334.553 471.04L-338.277 464.887L-341.971 458.589L-345.631 452.147L-349.255 445.564L-352.84 438.841L-356.384 431.98L-359.884 424.982L-363.338 417.85L-366.744 410.588L-370.099 403.196L-373.401 395.679L-376.648 388.038L-379.838 380.278L-382.968 372.402L-386.037 364.412L-389.043 356.313L-391.983 348.108L-394.857 339.802L-397.661 331.397L-400.395 322.898L-403.057 314.309L-405.646 305.634L-408.159 296.878L-410.595 288.044L-412.953 279.138L-415.232 270.162L-417.429 261.123L-419.545 252.024Z" fill="url(#paint1_linear_11_2)"/>
</g>
<defs>
<filter id="filter0_d_11_2" x="0" y="0" width="328" height="633" filterUnits="userSpaceOnUse" color-interpolation-filters="sRGB">
<feFlood flood-opacity="0" result="BackgroundImageFix"/>
<feColorMatrix in="SourceAlpha" type="matrix" values="0 0 0 0 0 0 0 0 0 0 0 0 0 0 0 0 0 0 127 0" result="hardAlpha"/>
<feOffset dy="4"/>
<feGaussianBlur stdDeviation="2"/>
<feComposite in2="hardAlpha" operator="out"/>
<feColorMatrix type="matrix" values="0 0 0 0 0 0 0 0 0 0 0 0 0 0 0 0 0 0 0.25 0"/>
<feBlend mode="normal" in2="BackgroundImageFix" result="effect1_dropShadow_11_2"/>
<feBlend mode="normal" in="SourceGraphic" in2="effect1_dropShadow_11_2" result="shape"/>
</filter>
<linearGradient id="paint0_linear_11_2" x1="1357.52" y1="2578.76" x2="1897.65" y2="2364.97" gradientUnits="userSpaceOnUse">
<stop stop-color="#094398"/>
<stop offset="1" stop-color="#FDFDFD"/>
</linearGradient>
<linearGradient id="paint1_linear_11_2" x1="-314.852" y1="1616.6" x2="-978.051" y2="1297.3" gradientUnits="userSpaceOnUse">
<stop stop-color="#3D8BFD"/>
<stop offset="1" stop-color="#C5E4FE"/>
</linearGradient>
<clipPath id="clip0_11_2">
<rect width="320" height="625" fill="white" transform="translate(4)"/>
</clipPath>
</defs>
</svg>
