<svg width="1943" height="1063" viewBox="0 0 1943 1063" fill="none" xmlns="http://www.w3.org/2000/svg">
<g clip-path="url(#clip0_11_2)" filter="url(#filter0_d_11_2)">
<path fill-rule="evenodd" clip-rule="evenodd" d="M1342.47 1064.9V1064.9L1342.46 1067.8L1342.57 1070.7L1342.8 1073.61L1343.15 1076.54L1343.61 1079.49L1344.19 1082.46L1344.88 1085.47L1345.67 1088.52L1346.54 1091.6L1347.51 1094.73L1348.55 1097.91L1349.65 1101.15L1350.81 1104.43L1352.02 1107.77L1353.26 1111.17L1354.51 1114.62L1355.78 1118.13L1357.03 1121.69L1358.27 1125.31L1359.48 1128.97L1360.65 1132.69L1361.77 1136.45L1362.83 1140.25L1363.83 1144.09L1364.75 1147.97L1365.59 1151.88L1366.35 1155.82L1367.01 1159.78L1367.59 1163.77L1368.06 1167.77L1368.44 1171.79L1368.71 1175.82L1368.87 1179.85L1368.92 1183.89L1368.85 1187.92L1368.67 1191.94L1368.36 1195.95L1367.93 1199.94L1367.36 1203.9L1366.67 1207.83L1365.85 1211.73L1364.89 1215.58L1363.8 1219.38L1362.56 1223.13L1361.19 1226.82L1359.69 1230.44L1358.04 1233.99L1356.26 1237.47L1354.34 1240.86L1352.28 1244.16L1350.09 1247.37L1347.78 1250.48L1345.33 1253.49L1342.76 1256.4L1340.08 1259.19L1337.27 1261.88L1334.36 1264.45L1331.34 1266.9L1328.22 1269.23L1325 1271.45L1321.69 1273.54L1318.3 1275.51L1314.83 1277.35L1311.28 1279.08L1307.67 1280.68L1303.99 1282.15L1300.26 1283.51L1296.47 1284.74L1292.64 1285.85L1288.76 1286.83L1284.85 1287.7L1280.91 1288.45L1276.94 1289.08L1272.95 1289.59L1268.94 1289.98L1264.91 1290.25L1260.87 1290.41L1256.83 1290.45L1252.78 1290.38L1248.73 1290.19L1244.69 1289.88L1240.65 1289.46L1236.62 1288.93L1232.6 1288.28L1228.6 1287.52L1224.62 1286.65L1220.66 1285.66L1216.73 1284.57L1212.83 1283.37L1208.96 1282.06L1205.13 1280.65L1201.34 1279.13L1197.59 1277.52L1193.89 1275.82L1190.24 1274.04L1186.64 1272.17L1183.1 1270.22L1179.62 1268.21L1176.2 1266.13L1172.85 1263.99L1169.57 1261.8L1166.35 1259.57L1163.2 1257.31L1160.13 1255.01L1157.13 1252.7L1154.2 1250.38L1151.35 1248.06L1148.56 1245.74L1145.86 1243.44L1143.22 1241.16L1140.65 1238.9L1138.15 1236.68L1135.72 1234.51L1133.36 1232.38L1131.05 1230.3L1128.8 1228.29L1126.61 1226.34L1124.46 1224.46L1122.37 1222.66L1120.32 1220.94L1118.31 1219.3L1116.33 1217.75L1114.38 1216.3L1112.46 1214.94L1110.56 1213.68L1108.68 1212.52L1106.81 1211.46L1104.94 1210.51L1103.08 1209.66L1101.21 1208.92L1099.33 1208.28L1097.44 1207.75L1095.53 1207.32L1093.6 1206.99L1091.64 1206.76L1089.65 1206.63L1087.62 1206.59L1085.55 1206.64L1083.44 1206.76L1081.29 1206.97L1079.08 1207.25L1076.83 1207.59L1074.52 1207.99L1072.17 1208.44L1069.76 1208.93L1067.29 1209.46L1064.78 1210.02L1062.21 1210.59L1059.59 1211.17L1056.92 1211.76L1054.2 1212.34L1051.44 1212.9L1048.64 1213.44L1045.8 1213.95L1042.93 1214.43L1040.03 1214.86L1037.09 1215.24L1034.14 1215.56L1031.16 1215.82L1028.17 1216.02L1025.17 1216.16L1022.16 1216.22L1019.14 1216.2L1016.12 1216.12L1013.09 1215.96L1010.07 1215.72L1007.05 1215.41L1004.03 1215.02L1001.02 1214.56L998.018 1214.03L995.021 1213.43L992.032 1212.75L989.053 1212.01L986.086 1211.19L983.134 1210.31L980.2 1209.35L977.29 1208.32L974.411 1207.2L971.57 1206.01L968.777 1204.72L966.043 1203.34L963.376 1201.86L960.787 1200.28L958.287 1198.6L955.884 1196.81L953.588 1194.91L951.407 1192.91L949.351 1190.79L947.426 1188.58L945.64 1186.25L943.998 1183.83L942.506 1181.31L941.168 1178.7L939.987 1176.01L938.966 1173.23L938.107 1170.38L937.408 1167.46L936.87 1164.48L936.491 1161.44L936.267 1158.37L936.194 1155.25L936.268 1152.1L936.482 1148.93L936.829 1145.75L937.301 1142.57L937.889 1139.38L938.583 1136.2L939.373 1133.04L940.247 1129.91L941.194 1126.8L942.201 1123.72L943.255 1120.68L944.342 1117.69L945.45 1114.74L946.564 1111.85L947.67 1109L948.754 1106.21L949.802 1103.47L950.8 1100.79L951.734 1098.16L952.592 1095.58L953.361 1093.05L954.028 1090.57L954.581 1088.13L955.011 1085.73L955.306 1083.37L955.458 1081.03L955.459 1078.71L955.301 1076.41L954.979 1074.12L954.488 1071.83L953.826 1069.54L952.99 1067.23L951.979 1064.9L950.795 1062.54L949.44 1060.14L947.919 1057.7L946.236 1055.2L944.398 1052.65L942.415 1050.03L940.295 1047.34L938.049 1044.57L935.69 1041.72L933.232 1038.78L930.688 1035.75L928.074 1032.63L925.405 1029.42L922.697 1026.11L919.966 1022.71L917.229 1019.22L914.5 1015.63L911.796 1011.95L909.129 1008.19L906.512 1004.34L903.958 1000.41L901.477 996.399L899.079 992.318L896.774 988.168L894.572 983.954L892.479 979.682L890.504 975.355L888.654 970.981L886.935 966.563L885.353 962.109L883.913 957.623L882.621 953.113L881.479 948.583L880.493 944.041L879.666 939.492L879.001 934.944L878.5 930.402L878.165 925.873L878 921.364L878.005 916.882L878.182 912.433L878.531 908.024L879.054 903.662L879.751 899.354L880.621 895.106L881.665 890.926L882.882 886.819L884.27 882.793L885.829 878.855L887.556 875.01L889.449 871.265L891.506 867.625L893.724 864.097L896.099 860.686L898.627 857.397L901.305 854.234L904.127 851.203L907.088 848.307L910.183 845.549L913.406 842.933L916.751 840.46L920.211 838.134L923.78 835.954L927.45 833.922L931.214 832.038L935.064 830.301L938.993 828.711L942.994 827.265L947.058 825.962L951.177 824.799L955.345 823.772L959.553 822.879L963.794 822.115L968.062 821.477L972.349 820.959L976.648 820.557L980.955 820.266L985.262 820.082L989.565 820L993.858 820.015L998.138 820.123L1002.4 820.319L1006.64 820.599L1010.86 820.961L1015.05 821.4L1019.2 821.914L1023.33 822.501L1027.42 823.157L1031.48 823.881L1035.5 824.672L1039.48 825.526L1043.42 826.443L1047.32 827.42L1051.18 828.454L1055 829.541L1058.76 830.678L1062.48 831.86L1066.16 833.085L1069.78 834.352L1073.36 835.657L1076.88 836.999L1080.36 838.375L1083.79 839.784L1087.17 841.223L1090.49 842.691L1093.77 844.188L1097 845.711L1100.18 847.261L1103.31 848.837L1106.39 850.439L1109.42 852.067L1112.41 853.72L1115.34 855.399L1118.23 857.104L1121.07 858.834L1123.86 860.59L1126.61 862.371L1129.3 864.177L1131.95 866.008L1134.55 867.863L1137.1 869.741L1139.6 871.64L1142.05 873.56L1144.46 875.497L1146.82 877.451L1149.13 879.418L1151.39 881.396L1153.61 883.38L1155.78 885.368L1157.91 887.356L1160 889.339L1162.04 891.311L1164.05 893.269L1166.02 895.206L1167.96 897.118L1169.87 898.997L1171.75 900.838L1173.61 902.635L1175.44 904.382L1177.27 906.07L1179.09 907.696L1180.9 909.251L1182.72 910.73L1184.54 912.127L1186.39 913.436L1188.25 914.651L1190.14 915.769L1192.07 916.783L1194.05 917.692L1196.08 918.491L1198.16 919.177L1200.32 919.751L1202.54 920.21L1204.85 920.555L1207.25 920.788L1209.74 920.91L1212.33 920.924L1215.02 920.837L1217.82 920.651L1220.74 920.375L1223.76 920.016L1226.91 919.583L1230.17 919.084L1233.55 918.532L1237.04 917.936L1240.64 917.309L1244.35 916.663L1248.17 916.012L1252.08 915.368L1256.07 914.745L1260.15 914.154L1264.3 913.609L1268.52 913.122L1272.79 912.702L1277.11 912.363L1281.45 912.113L1285.83 911.964L1290.21 911.925L1294.59 912.006L1298.95 912.215L1303.28 912.56L1307.57 913.05L1311.8 913.691L1315.96 914.489L1320.02 915.45L1323.98 916.579L1327.82 917.878L1331.53 919.35L1335.08 920.994L1338.48 922.811L1341.7 924.799L1344.74 926.955L1347.59 929.273L1350.24 931.749L1352.67 934.377L1354.9 937.149L1356.9 940.057L1358.69 943.092L1360.25 946.244L1361.59 949.504L1362.72 952.86L1363.63 956.303L1364.33 959.821L1364.82 963.404L1365.11 967.04L1365.22 970.719L1365.15 974.431L1364.9 978.164L1364.5 981.91L1363.95 985.658L1363.27 989.402L1362.47 993.131L1361.57 996.839L1360.57 1000.52L1359.5 1004.17L1358.36 1007.77L1357.18 1011.34L1355.97 1014.86L1354.74 1018.32L1353.5 1021.74L1352.28 1025.1L1351.08 1028.42L1349.92 1031.68L1348.8 1034.89L1347.75 1038.05L1346.77 1041.16L1345.87 1044.23L1345.06 1047.26L1344.35 1050.26L1343.74 1053.22L1343.25 1056.17L1342.87 1059.09L1342.61 1062L1342.47 1064.9" fill="url(#paint0_linear_11_2)"/>
<path fill-rule="evenodd" clip-rule="evenodd" d="M1380.3 127.092V127.092L1380.02 130.33L1379.86 133.564L1379.8 136.8L1379.86 140.046L1380.02 143.306L1380.28 146.587L1380.64 149.894L1381.09 153.231L1381.62 156.604L1382.22 160.015L1382.88 163.468L1383.59 166.965L1384.33 170.507L1385.09 174.094L1385.85 177.726L1386.6 181.401L1387.32 185.115L1388 188.866L1388.61 192.648L1389.14 196.455L1389.58 200.281L1389.91 204.118L1390.11 207.958L1390.17 211.794L1390.09 215.617L1389.85 219.417L1389.45 223.188L1388.88 226.919L1388.14 230.602L1387.21 234.228L1386.1 237.787L1384.81 241.272L1383.33 244.672L1381.66 247.981L1379.81 251.189L1377.77 254.29L1375.55 257.276L1373.16 260.142L1370.6 262.88L1367.87 265.485L1364.99 267.954L1361.95 270.281L1358.77 272.463L1355.46 274.499L1352.02 276.385L1348.46 278.122L1344.81 279.709L1341.05 281.148L1337.22 282.439L1333.31 283.585L1329.33 284.59L1325.31 285.458L1321.25 286.193L1317.17 286.803L1313.06 287.292L1308.95 287.668L1304.85 287.939L1300.75 288.113L1296.68 288.198L1292.64 288.204L1288.65 288.138L1284.7 288.012L1280.8 287.833L1276.96 287.612L1273.18 287.357L1269.48 287.077L1265.85 286.781L1262.29 286.478L1258.8 286.174L1255.4 285.877L1252.07 285.593L1248.81 285.327L1245.64 285.086L1242.53 284.872L1239.5 284.689L1236.53 284.54L1233.63 284.426L1230.79 284.348L1228 284.307L1225.27 284.302L1222.59 284.332L1219.95 284.396L1217.35 284.491L1214.79 284.614L1212.26 284.762L1209.76 284.931L1207.28 285.113L1204.82 285.301L1202.38 285.487L1199.94 285.662L1197.52 285.816L1195.1 285.94L1192.69 286.024L1190.28 286.061L1187.87 286.042L1185.47 285.961L1183.07 285.813L1180.67 285.593L1178.28 285.3L1175.9 284.93L1173.54 284.482L1171.18 283.956L1168.84 283.351L1166.52 282.668L1164.22 281.908L1161.94 281.073L1159.68 280.167L1157.46 279.193L1155.26 278.155L1153.09 277.059L1150.96 275.911L1148.86 274.717L1146.79 273.485L1144.76 272.221L1142.76 270.934L1140.8 269.632L1138.86 268.323L1136.96 267.015L1135.09 265.717L1133.24 264.437L1131.41 263.184L1129.61 261.965L1127.82 260.788L1126.04 259.66L1124.26 258.588L1122.49 257.577L1120.72 256.635L1118.93 255.765L1117.14 254.973L1115.32 254.261L1113.47 253.632L1111.6 253.089L1109.68 252.634L1107.73 252.266L1105.72 251.985L1103.67 251.791L1101.55 251.682L1099.37 251.655L1097.13 251.708L1094.81 251.835L1092.42 252.033L1089.95 252.297L1087.4 252.62L1084.77 252.997L1082.05 253.419L1079.25 253.882L1076.37 254.375L1073.4 254.893L1070.35 255.426L1067.22 255.966L1064.01 256.506L1060.72 257.036L1057.35 257.548L1053.92 258.035L1050.42 258.488L1046.86 258.899L1043.24 259.261L1039.57 259.565L1035.85 259.803L1032.1 259.966L1028.32 260.045L1024.52 260.031L1020.71 259.915L1016.91 259.69L1013.13 259.346L1009.37 258.876L1005.66 258.273L1002.01 257.529L998.428 256.639L994.937 255.596L991.55 254.397L988.284 253.037L985.152 251.514L982.169 249.83L979.348 247.983L976.702 245.977L974.24 243.814L971.975 241.499L969.913 239.039L968.063 236.439L966.43 233.708L965.017 230.855L963.827 227.889L962.86 224.822L962.114 221.665L961.585 218.428L961.27 215.125L961.159 211.767L961.245 208.366L961.518 204.934L961.965 201.483L962.573 198.024L963.328 194.569L964.214 191.126L965.214 187.706L966.312 184.317L967.49 180.967L968.728 177.662L970.009 174.408L971.312 171.209L972.621 168.069L973.916 164.99L975.179 161.974L976.393 159.019L977.54 156.125L978.606 153.29L979.574 150.511L980.432 147.784L981.166 145.103L981.766 142.463L982.222 139.858L982.525 137.281L982.669 134.724L982.649 132.179L982.46 129.638L982.102 127.092L981.574 124.534L980.877 121.954L980.015 119.345L978.992 116.698L977.816 114.005L976.493 111.26L975.035 108.455L973.452 105.585L971.757 102.645L969.964 99.6288L968.089 96.5345L966.146 93.3591L964.153 90.1012L962.129 86.7605L960.093 83.3379L958.066 79.8358L956.069 76.2581L954.125 72.6098L952.255 68.8973L950.482 65.1283L948.827 61.3116L947.309 57.4572L945.95 53.5759L944.766 49.6793L943.774 45.7797L942.989 41.8899L942.424 38.0231L942.091 34.1928L942 30.413L942.159 26.6975L942.575 23.0603L943.252 19.515L944.194 16.0751L945.402 12.7534L946.873 9.562L948.606 6.51237L950.595 3.61481L952.833 0.87854L955.311 -1.68845L958.019 -4.07954L960.945 -6.28954L964.075 -8.31479L967.394 -10.1532L970.886 -11.8044L974.533 -13.2695L978.319 -14.5514L982.223 -15.6545L986.228 -16.585L990.314 -17.3506L994.462 -17.9605L998.652 -18.4252L1002.87 -18.7569L1007.08 -18.9688L1011.29 -19.0752L1015.46 -19.0915L1019.59 -19.034L1023.66 -18.9196L1027.65 -18.766L1031.56 -18.591L1035.36 -18.4129L1039.06 -18.2499L1042.64 -18.1201L1046.09 -18.0415L1049.42 -18.0314L1052.61 -18.1068L1055.66 -18.2835L1058.58 -18.5766L1061.37 -19L1064.02 -19.5665L1066.55 -20.2873L1068.96 -21.1721L1071.25 -22.2292L1073.43 -23.4647L1075.51 -24.8834L1077.51 -26.4879L1079.43 -28.2789L1081.28 -30.2553L1083.08 -32.4137L1084.84 -34.7493L1086.56 -37.2548L1088.28 -39.9216L1089.99 -42.7389L1091.71 -45.6947L1093.45 -48.7751L1095.22 -51.9651L1097.04 -55.2477L1098.91 -58.6045L1100.84 -62.0157L1102.85 -65.4604L1104.94 -68.9171L1107.11 -72.3635L1109.38 -75.7772L1111.74 -79.136L1114.2 -82.418L1116.75 -85.6022L1119.41 -88.6685L1122.17 -91.5983L1125.02 -94.3745L1127.96 -96.9809L1130.98 -99.4024L1134.09 -101.625L1137.27 -103.635L1140.52 -105.422L1143.82 -106.975L1147.18 -108.286L1150.58 -109.346L1154.01 -110.15L1157.46 -110.695L1160.92 -110.978L1164.38 -111L1167.84 -110.762L1171.28 -110.268L1174.69 -109.524L1178.07 -108.536L1181.4 -107.315L1184.69 -105.871L1187.91 -104.215L1191.07 -102.363L1194.15 -100.328L1197.17 -98.1275L1200.11 -95.778L1202.96 -93.2975L1205.74 -90.7046L1208.44 -88.0183L1211.06 -85.2577L1213.6 -82.4423L1216.07 -79.5912L1218.47 -76.7234L1220.82 -73.8574L1223.1 -71.0111L1225.34 -68.2017L1227.53 -65.4452L1229.7 -62.7568L1231.84 -60.1506L1233.97 -57.6391L1236.1 -55.2337L1238.24 -52.9442L1240.4 -50.7789L1242.59 -48.7447L1244.81 -46.8466L1247.09 -45.0882L1249.42 -43.4714L1251.83 -41.9965L1254.31 -40.6621L1256.88 -39.4656L1259.54 -38.4024L1262.29 -37.4668L1265.15 -36.6515L1268.12 -35.9478L1271.2 -35.3459L1274.39 -34.8346L1277.68 -34.4017L1281.09 -34.0339L1284.61 -33.7173L1288.23 -33.4373L1291.94 -33.1792L1295.74 -32.9277L1299.63 -32.6678L1303.59 -32.3846L1307.61 -32.0632L1311.69 -31.6895L1315.8 -31.2497L1319.94 -30.7308L1324.09 -30.1206L1328.25 -29.4078L1332.39 -28.5822L1336.5 -27.635L1340.57 -26.5583L1344.59 -25.3458L1348.53 -23.9926L1352.4 -22.4948L1356.18 -20.8491L1359.84 -19.0536L1363.39 -17.1069L1366.81 -15.009L1370.09 -12.7607L1373.22 -10.3641L1376.19 -7.82179L1378.98 -5.13773L1381.6 -2.31649L1384.03 0.636543L1386.27 3.71522L1388.32 6.9127L1390.17 10.2215L1391.81 13.6337L1393.25 17.1406L1394.48 20.7335L1395.52 24.4029L1396.35 28.1394L1396.99 31.9333L1397.43 35.7748L1397.69 39.6541L1397.77 43.5617L1397.69 47.488L1397.45 51.424L1397.06 55.3609L1396.53 59.2905L1395.89 63.2051L1395.13 67.0977L1394.29 70.962L1393.37 74.7924L1392.38 78.5842L1391.35 82.3336L1390.29 86.0377L1389.21 89.6944L1388.14 93.3026L1387.08 96.8622L1386.05 100.374L1385.06 103.839L1384.13 107.261L1383.27 110.642L1382.49 113.986L1381.79 117.298L1381.19 120.582L1380.69 123.845L1380.3 127.092" fill="url(#paint1_linear_11_2)"/>
<path fill-rule="evenodd" clip-rule="evenodd" d="M2146.41 725.678V725.678L2145.76 728.335L2144.99 730.971L2144.1 733.583L2143.1 736.165L2141.99 738.715L2140.76 741.228L2139.44 743.702L2138.01 746.134L2136.5 748.52L2134.9 750.859L2133.21 753.15L2131.46 755.389L2129.65 757.579L2127.79 759.717L2125.89 761.806L2123.96 763.846L2122.01 765.84L2120.06 767.791L2118.12 769.703L2116.19 771.579L2114.29 773.425L2112.44 775.245L2110.63 777.046L2108.88 778.834L2107.2 780.615L2105.59 782.396L2104.06 784.184L2102.63 785.986L2101.28 787.809L2100.02 789.659L2098.86 791.543L2097.8 793.469L2096.84 795.443L2095.97 797.47L2095.2 799.558L2094.53 801.712L2093.96 803.936L2093.47 806.237L2093.06 808.618L2092.74 811.083L2092.49 813.635L2092.31 816.277L2092.19 819.011L2092.13 821.837L2092.11 824.757L2092.12 827.77L2092.17 830.876L2092.24 834.072L2092.31 837.356L2092.39 840.725L2092.46 844.176L2092.52 847.703L2092.54 851.302L2092.53 854.968L2092.48 858.693L2092.37 862.471L2092.2 866.294L2091.96 870.156L2091.64 874.048L2091.24 877.961L2090.75 881.888L2090.16 885.819L2089.46 889.745L2088.67 893.658L2087.76 897.549L2086.73 901.407L2085.59 905.226L2084.33 908.996L2082.95 912.709L2081.45 916.356L2079.83 919.931L2078.08 923.426L2076.22 926.834L2074.24 930.149L2072.14 933.365L2069.92 936.478L2067.6 939.482L2065.17 942.374L2062.64 945.151L2060.01 947.81L2057.29 950.349L2054.47 952.767L2051.57 955.063L2048.6 957.238L2045.55 959.294L2042.43 961.234L2039.25 963.063L2036.02 964.785L2032.74 966.408L2029.41 967.938L2026.04 969.382L2022.64 970.749L2019.2 972.046L2015.74 973.28L2012.25 974.46L2008.74 975.593L2005.21 976.684L2001.66 977.74L1998.09 978.764L1994.51 979.76L1990.9 980.729L1987.28 981.674L1983.64 982.592L1979.97 983.486L1976.29 984.353L1972.59 985.193L1968.87 986.003L1965.13 986.781L1961.37 987.524L1957.58 988.228L1953.78 988.891L1949.95 989.507L1946.11 990.071L1942.24 990.578L1938.36 991.024L1934.47 991.402L1930.56 991.707L1926.64 991.933L1922.71 992.074L1918.77 992.123L1914.83 992.076L1910.89 991.927L1906.96 991.67L1903.04 991.3L1899.12 990.812L1895.23 990.203L1891.36 989.467L1887.52 988.601L1883.71 987.602L1879.94 986.467L1876.22 985.195L1872.54 983.783L1868.92 982.232L1865.35 980.54L1861.86 978.709L1858.43 976.738L1855.08 974.63L1851.81 972.387L1848.62 970.011L1845.52 967.506L1842.51 964.876L1839.6 962.125L1836.78 959.258L1834.07 956.281L1831.46 953.198L1828.95 950.015L1826.55 946.74L1824.26 943.378L1822.08 939.936L1820 936.421L1818.03 932.84L1816.17 929.199L1814.41 925.507L1812.76 921.768L1811.21 917.992L1809.76 914.184L1808.41 910.35L1807.16 906.498L1805.99 902.633L1804.92 898.762L1803.93 894.889L1803.02 891.02L1802.19 887.161L1801.44 883.316L1800.75 879.491L1800.14 875.689L1799.58 871.916L1799.07 868.176L1798.62 864.473L1798.21 860.81L1797.84 857.192L1797.5 853.622L1797.18 850.104L1796.88 846.642L1796.58 843.237L1796.29 839.892L1795.99 836.61L1795.68 833.39L1795.35 830.232L1794.99 827.137L1794.61 824.104L1794.19 821.13L1793.73 818.214L1793.23 815.353L1792.69 812.544L1792.1 809.784L1791.46 807.069L1790.78 804.395L1790.05 801.757L1789.27 799.15L1788.45 796.572L1787.59 794.015L1786.7 791.477L1785.77 788.952L1784.82 786.436L1783.84 783.925L1782.85 781.414L1781.85 778.899L1780.85 776.378L1779.85 773.847L1778.87 771.303L1777.91 768.744L1776.98 766.168L1776.09 763.574L1775.24 760.96L1774.45 758.327L1773.73 755.674L1773.07 753.002L1772.49 750.313L1772 747.607L1771.6 744.886L1771.29 742.153L1771.09 739.411L1771 736.663L1771.02 733.912L1771.15 731.161L1771.41 728.415L1771.78 725.678L1772.27 722.952L1772.88 720.243L1773.61 717.555L1774.45 714.891L1775.41 712.256L1776.48 709.652L1777.66 707.083L1778.94 704.552L1780.31 702.063L1781.78 699.616L1783.32 697.215L1784.94 694.861L1786.63 692.554L1788.38 690.295L1790.17 688.085L1792.01 685.922L1793.89 683.807L1795.79 681.739L1797.72 679.714L1799.65 677.733L1801.59 675.791L1803.52 673.888L1805.45 672.018L1807.35 670.18L1809.24 668.37L1811.1 666.584L1812.93 664.819L1814.72 663.071L1816.48 661.336L1818.19 659.609L1819.85 657.888L1821.47 656.168L1823.04 654.444L1824.56 652.712L1826.03 650.969L1827.44 649.209L1828.79 647.428L1830.09 645.623L1831.34 643.789L1832.53 641.921L1833.66 640.017L1834.75 638.071L1835.78 636.081L1836.76 634.043L1837.69 631.954L1838.58 629.81L1839.43 627.609L1840.23 625.349L1841 623.027L1841.74 620.641L1842.45 618.191L1843.14 615.674L1843.8 613.089L1844.45 610.437L1845.09 607.718L1845.73 604.93L1846.36 602.076L1847 599.157L1847.65 596.172L1848.32 593.126L1849.01 590.019L1849.72 586.854L1850.46 583.634L1851.24 580.362L1852.06 577.043L1852.93 573.679L1853.84 570.274L1854.81 566.834L1855.85 563.362L1856.94 559.863L1858.1 556.343L1859.33 552.806L1860.64 549.257L1862.02 545.703L1863.48 542.147L1865.02 538.596L1866.65 535.055L1868.36 531.529L1870.16 528.024L1872.05 524.545L1874.02 521.098L1876.09 517.687L1878.25 514.318L1880.49 510.994L1882.83 507.721L1885.25 504.499L1887.76 501.33L1890.35 498.217L1893.02 495.159L1895.78 492.157L1898.61 489.21L1901.52 486.318L1904.51 483.48L1907.57 480.698L1910.7 477.969L1913.9 475.296L1917.17 472.679L1920.51 470.119L1923.92 467.619L1927.39 465.183L1930.93 462.815L1934.53 460.521L1938.19 458.305L1941.91 456.173L1945.7 454.13L1949.53 452.183L1953.43 450.337L1957.37 448.597L1961.37 446.97L1965.4 445.461L1969.48 444.075L1973.6 442.818L1977.75 441.696L1981.93 440.713L1986.14 439.875L1990.36 439.186L1994.6 438.65L1998.85 438.271L2003.1 438.054L2007.35 438L2011.6 438.113L2015.82 438.395L2020.03 438.848L2024.21 439.472L2028.37 440.269L2032.48 441.238L2036.55 442.38L2040.56 443.692L2044.53 445.174L2048.43 446.823L2052.27 448.636L2056.03 450.612L2059.72 452.745L2063.32 455.032L2066.84 457.468L2070.27 460.049L2073.61 462.768L2076.85 465.62L2079.99 468.6L2083.03 471.699L2085.97 474.913L2088.79 478.234L2091.52 481.655L2094.13 485.17L2096.63 488.77L2099.02 492.449L2101.31 496.2L2103.48 500.015L2105.55 503.888L2107.51 507.812L2109.36 511.78L2111.11 515.785L2112.75 519.821L2114.29 523.882L2115.74 527.962L2117.08 532.054L2118.34 536.155L2119.5 540.259L2120.57 544.36L2121.56 548.454L2122.46 552.538L2123.28 556.607L2124.03 560.656L2124.7 564.683L2125.3 568.683L2125.83 572.652L2126.31 576.588L2126.72 580.487L2127.09 584.344L2127.4 588.157L2127.68 591.923L2127.92 595.637L2128.13 599.296L2128.33 602.897L2128.51 606.437L2128.68 609.913L2128.86 613.324L2129.05 616.669L2129.25 619.947L2129.47 623.159L2129.73 626.306L2130.01 629.39L2130.32 632.411L2130.68 635.374L2131.08 638.28L2131.52 641.133L2132 643.937L2132.53 646.695L2133.1 649.413L2133.72 652.095L2134.37 654.744L2135.07 657.366L2135.8 659.965L2136.56 662.547L2137.35 665.114L2138.15 667.672L2138.97 670.225L2139.8 672.776L2140.63 675.329L2141.45 677.887L2142.26 680.453L2143.04 683.029L2143.8 685.616L2144.51 688.217L2145.18 690.832L2145.8 693.462L2146.35 696.106L2146.83 698.764L2147.23 701.435L2147.55 704.117L2147.78 706.809L2147.91 709.508L2147.94 712.211L2147.86 714.915L2147.67 717.618L2147.37 720.315L2146.95 723.003L2146.41 725.678" fill="url(#paint2_linear_11_2)"/>
<path fill-rule="evenodd" clip-rule="evenodd" d="M252.351 106.194V106.194L251.631 108.956L250.915 111.702L250.202 114.432L249.495 117.148L248.792 119.85L248.094 122.539L247.399 125.216L246.707 127.882L246.017 130.538L245.327 133.185L244.636 135.822L243.943 138.451L243.245 141.071L242.54 143.684L241.826 146.288L241.1 148.885L240.361 151.473L239.606 154.053L238.832 156.625L238.037 159.186L237.218 161.738L236.372 164.279L235.498 166.807L234.592 169.323L233.653 171.824L232.677 174.31L231.664 176.778L230.61 179.229L229.514 181.659L228.374 184.067L227.188 186.452L225.956 188.812L224.675 191.145L223.345 193.449L221.965 195.723L220.534 197.965L219.051 200.172L217.517 202.344L215.932 204.478L214.295 206.573L212.607 208.627L210.868 210.639L209.08 212.608L207.243 214.532L205.358 216.41L203.427 218.241L201.451 220.023L199.431 221.757L197.37 223.442L195.27 225.076L193.131 226.66L190.957 228.193L188.749 229.676L186.509 231.107L184.241 232.487L181.945 233.818L179.626 235.098L177.284 236.328L174.922 237.51L172.544 238.644L170.151 239.731L167.745 240.772L165.33 241.769L162.907 242.722L160.478 243.634L158.047 244.505L155.615 245.338L153.184 246.134L150.756 246.894L148.333 247.622L145.918 248.319L143.51 248.986L141.113 249.626L138.728 250.241L136.356 250.832L133.998 251.403L131.655 251.954L129.329 252.489L127.019 253.009L124.728 253.516L122.455 254.012L120.201 254.5L117.966 254.98L115.751 255.455L113.555 255.926L111.379 256.396L109.222 256.865L107.084 257.336L104.965 257.81L102.863 258.287L100.78 258.769L98.7134 259.258L96.663 259.753L94.6278 260.256L92.6071 260.768L90.5999 261.289L88.605 261.818L86.6215 262.358L84.6482 262.906L82.684 263.465L80.7277 264.033L78.7782 264.61L76.8343 265.196L74.8949 265.79L72.9588 266.392L71.0248 267.001L69.0919 267.617L67.159 268.238L65.225 268.865L63.289 269.495L61.35 270.128L59.4071 270.762L57.4594 271.398L55.5061 272.034L53.5465 272.668L51.5798 273.3L49.6055 273.928L47.6228 274.552L45.6314 275.17L43.6306 275.781L41.6201 276.385L39.5995 276.98L37.5685 277.565L35.5267 278.14L33.4739 278.703L31.4099 279.254L29.3346 279.791L27.2477 280.315L25.1492 280.825L23.0391 281.319L20.9171 281.797L18.7834 282.259L16.6379 282.704L14.4806 283.132L12.3115 283.541L10.1306 283.933L7.93799 284.307L5.73361 284.662L3.51749 284.999L1.28964 285.317L-0.94989 285.615L-3.20119 285.896L-5.46422 286.157L-7.73903 286.399L-10.0257 286.622L-12.3242 286.827L-14.6347 287.013L-16.9572 287.181L-19.292 287.33L-21.639 287.46L-23.9984 287.572L-26.3704 287.666L-28.7551 287.741L-31.1526 287.798L-33.5631 287.837L-35.9869 287.857L-38.424 287.859L-40.8745 287.842L-43.3387 287.806L-45.8166 287.751L-48.3083 287.677L-50.814 287.583L-53.3337 287.469L-55.8673 287.334L-58.415 287.178L-60.9766 287L-63.5521 286.799L-66.1412 286.576L-68.7439 286.328L-71.3598 286.056L-73.9886 285.758L-76.63 285.434L-79.2834 285.082L-81.9485 284.702L-84.6246 284.292L-87.311 283.851L-90.0071 283.378L-92.7122 282.873L-95.4255 282.335L-98.1462 281.761L-100.874 281.152L-103.606 280.507L-106.344 279.824L-109.085 279.102L-111.829 278.341L-114.575 277.54L-117.321 276.698L-120.067 275.814L-122.811 274.888L-125.551 273.918L-128.287 272.904L-131.018 271.845L-133.741 270.741L-136.457 269.591L-139.162 268.395L-141.856 267.152L-144.537 265.861L-147.205 264.522L-149.857 263.136L-152.492 261.701L-155.108 260.218L-157.705 258.685L-160.281 257.105L-162.833 255.475L-165.362 253.797L-167.865 252.07L-170.342 250.295L-172.79 248.472L-175.209 246.601L-177.597 244.683L-179.953 242.718L-182.276 240.706L-184.565 238.648L-186.818 236.545L-189.035 234.397L-191.214 232.205L-193.355 229.97L-195.457 227.692L-197.518 225.372L-199.538 223.012L-201.517 220.611L-203.453 218.171L-205.347 215.694L-207.198 213.179L-209.006 210.629L-210.77 208.044L-212.491 205.425L-214.169 202.774L-215.804 200.092L-217.396 197.379L-218.946 194.638L-220.455 191.868L-221.922 189.072L-223.349 186.25L-224.736 183.404L-226.084 180.534L-227.394 177.641L-228.667 174.726L-229.904 171.791L-231.105 168.835L-232.273 165.86L-233.408 162.866L-234.511 159.855L-235.583 156.826L-236.625 153.779L-237.639 150.717L-238.625 147.638L-239.584 144.543L-240.517 141.432L-241.426 138.306L-242.31 135.164L-243.172 132.008L-244.01 128.835L-244.826 125.648L-245.621 122.445L-246.394 119.227L-247.146 115.992L-247.877 112.742L-248.587 109.476L-249.275 106.194L-249.942 102.896L-250.588 99.5803L-251.211 96.2484L-251.811 92.8997L-252.388 89.5338L-252.942 86.1508L-253.471 82.7506L-253.976 79.3329L-254.455 75.8978L-254.909 72.4451L-255.336 68.9749L-255.735 65.4872L-256.105 61.982L-256.447 58.4594L-256.757 54.9195L-257.037 51.3625L-257.283 47.7888L-257.496 44.1986L-257.673 40.5922L-257.813 36.9702L-257.916 33.333L-257.978 29.6812L-258 26.0156L-257.979 22.3369L-257.913 18.6458L-257.802 14.9434L-257.643 11.2306L-257.435 7.50839L-257.176 3.77802L-256.865 0.0406494L-256.5 -3.70245L-256.08 -7.44995L-255.603 -11.2005L-255.069 -14.9526L-254.475 -18.7048L-253.821 -22.4556L-253.106 -26.2036L-252.329 -29.9472L-251.489 -33.6848L-250.585 -37.4151L-249.618 -41.1364L-248.586 -44.8475L-247.491 -48.5468L-246.33 -52.2332L-245.106 -55.9053L-243.818 -59.5619L-242.466 -63.2019L-241.05 -66.8238L-239.572 -70.4267L-238.031 -74.0094L-236.427 -77.5706L-234.762 -81.1095L-233.036 -84.6248L-231.249 -88.1156L-229.402 -91.5809L-227.496 -95.0198L-225.531 -98.4314L-223.509 -101.815L-221.43 -105.169L-219.294 -108.494L-217.104 -111.789L-214.859 -115.053L-212.56 -118.285L-210.209 -121.485L-207.807 -124.652L-205.354 -127.786L-202.852 -130.887L-200.301 -133.954L-197.703 -136.987L-195.057 -139.986L-192.367 -142.95L-189.631 -145.879L-186.852 -148.772L-184.03 -151.631L-181.166 -154.454L-178.26 -157.241L-175.315 -159.993L-172.33 -162.708L-169.306 -165.388L-166.245 -168.031L-163.146 -170.638L-160.011 -173.208L-156.84 -175.741L-153.633 -178.237L-150.392 -180.695L-147.116 -183.116L-143.807 -185.498L-140.464 -187.842L-137.089 -190.146L-133.68 -192.41L-130.24 -194.633L-126.767 -196.813L-123.263 -198.951L-119.726 -201.043L-116.158 -203.088L-112.558 -205.085L-108.926 -207.032L-105.263 -208.926L-101.569 -210.765L-97.8435 -212.547L-94.0874 -214.269L-90.301 -215.929L-86.4847 -217.523L-82.6391 -219.05L-78.7648 -220.506L-74.8625 -221.888L-70.9332 -223.194L-66.9779 -224.421L-62.9976 -225.566L-58.9937 -226.626L-54.9676 -227.598L-50.9207 -228.48L-46.8548 -229.269L-42.7716 -229.962L-38.673 -230.558L-34.5611 -231.053L-30.4381 -231.447L-26.3061 -231.737L-22.1677 -231.922L-18.0251 -232L-13.8811 -231.97L-9.73819 -231.832L-5.59904 -231.585L-1.4664 -231.228L2.65698 -230.762L6.76834 -230.187L10.865 -229.504L14.9441 -228.714L19.003 -227.818L23.0391 -226.818L27.0497 -225.717L31.0326 -224.517L34.9853 -223.22L38.9055 -221.829L42.7912 -220.347L46.6403 -218.777L50.4511 -217.123L54.2218 -215.388L57.9509 -213.576L61.6371 -211.689L65.279 -209.733L68.8757 -207.71L72.4263 -205.625L75.93 -203.481L79.3864 -201.283L82.7951 -199.036L86.1559 -196.742L89.4688 -194.406L92.7339 -192.032L95.9518 -189.624L99.1228 -187.187L102.248 -184.724L105.327 -182.239L108.362 -179.736L111.354 -177.219L114.304 -174.691L117.214 -172.156L120.084 -169.616L122.917 -167.076L125.714 -164.539L128.478 -162.006L131.21 -159.481L133.911 -156.967L136.585 -154.465L139.233 -151.978L141.857 -149.508L144.46 -147.055L147.042 -144.623L149.608 -142.211L152.158 -139.821L154.694 -137.454L157.22 -135.11L159.736 -132.789L162.244 -130.492L164.746 -128.218L167.244 -125.968L169.74 -123.739L172.233 -121.532L174.726 -119.344L177.219 -117.175L179.713 -115.021L182.207 -112.882L184.703 -110.755L187.198 -108.637L189.694 -106.525L192.189 -104.418L194.683 -102.311L197.173 -100.203L199.659 -98.0894L202.139 -95.9681L204.611 -93.8359L207.073 -91.6898L209.522 -89.5269L211.956 -87.3442L214.372 -85.139L216.768 -82.9086L219.14 -80.6505L221.485 -78.3622L223.8 -76.0416L226.082 -73.6865L228.328 -71.2952L230.533 -68.8658L232.695 -66.3971L234.811 -63.8877L236.876 -61.3368L238.889 -58.7435L240.844 -56.1074L242.74 -53.4282L244.574 -50.706L246.342 -47.941L248.043 -45.1338L249.673 -42.285L251.231 -39.3957L252.715 -36.4671L254.122 -33.5006L255.453 -30.498L256.705 -27.4612L257.879 -24.392L258.972 -21.2928L259.987 -18.1656L260.921 -15.0128L261.776 -11.8368L262.551 -8.63994L263.248 -5.42465L263.866 -2.19339L264.408 1.05136L264.873 4.30714L265.264 7.57153L265.582 10.8421L265.828 14.1165L266.005 17.3923L266.114 20.6674L266.157 23.9395L266.138 27.2065L266.058 30.4664L265.92 33.7172L265.726 36.9572L265.479 40.1847L265.183 43.3981L264.839 46.5958L264.451 49.7767L264.021 52.9394L263.553 56.0829L263.049 59.2064L262.513 62.3089L261.947 65.3899L261.354 68.4487L260.737 71.4851L260.099 74.4988L259.442 77.4897L258.768 80.4576L258.082 83.4028L257.383 86.3256L256.676 89.2261L255.962 92.1049L255.243 94.9624L254.521 97.7994L253.797 100.617L253.073 103.414L252.351 106.194" fill="url(#paint3_linear_11_2)"/>
<path fill-rule="evenodd" clip-rule="evenodd" d="M305.959 929.918V929.918L306.674 934.071L307.299 938.241L307.832 942.426L308.274 946.623L308.625 950.832L308.885 955.048L309.054 959.271L309.132 963.498L309.121 967.728L309.021 971.959L308.833 976.187L308.557 980.413L308.195 984.633L307.748 988.847L307.217 993.052L306.602 997.247L305.906 1001.43L305.128 1005.6L304.272 1009.75L303.338 1013.89L302.326 1018.01L301.239 1022.12L300.078 1026.2L298.844 1030.26L297.538 1034.3L296.161 1038.31L294.715 1042.3L293.201 1046.26L291.62 1050.2L289.972 1054.11L288.26 1057.98L286.484 1061.83L284.644 1065.65L282.743 1069.43L280.78 1073.18L278.757 1076.9L276.674 1080.58L274.533 1084.23L272.334 1087.83L270.078 1091.4L267.765 1094.93L265.397 1098.42L262.974 1101.87L260.496 1105.27L257.965 1108.63L255.38 1111.95L252.743 1115.22L250.054 1118.44L247.313 1121.61L244.522 1124.74L241.68 1127.81L238.788 1130.83L235.847 1133.8L232.857 1136.71L229.819 1139.57L226.734 1142.37L223.602 1145.11L220.424 1147.79L217.201 1150.41L213.934 1152.97L210.623 1155.46L207.27 1157.89L203.875 1160.25L200.44 1162.54L196.965 1164.77L193.452 1166.92L189.903 1169.01L186.318 1171.02L182.699 1172.96L179.048 1174.83L175.366 1176.62L171.654 1178.34L167.914 1179.98L164.148 1181.55L160.359 1183.04L156.546 1184.46L152.713 1185.8L148.861 1187.06L144.993 1188.25L141.109 1189.36L137.213 1190.4L133.306 1191.36L129.389 1192.24L125.466 1193.05L121.538 1193.79L117.606 1194.46L113.673 1195.05L109.741 1195.58L105.811 1196.03L101.885 1196.42L97.9637 1196.74L94.0495 1196.99L90.1434 1197.17L86.2467 1197.28L82.3607 1197.33L78.4865 1197.31L74.6255 1197.22L70.7788 1197.07L66.9476 1196.85L63.133 1196.57L59.3362 1196.22L55.5583 1195.8L51.8005 1195.32L48.0639 1194.78L44.3497 1194.17L40.659 1193.49L36.9929 1192.76L33.3528 1191.96L29.7396 1191.09L26.1546 1190.17L22.599 1189.18L19.0739 1188.13L15.5805 1187.02L12.12 1185.85L8.69348 1184.62L5.30209 1183.34L1.94696 1182L-1.37088 1180.6L-4.65034 1179.16L-7.89046 1177.66L-11.0903 1176.11L-14.2489 1174.51L-17.3654 1172.86L-20.4392 1171.18L-23.4695 1169.45L-26.4559 1167.68L-29.3977 1165.88L-32.2946 1164.05L-35.1465 1162.18L-37.953 1160.29L-40.7143 1158.37L-43.4302 1156.43L-46.1011 1154.46L-48.727 1152.48L-51.3084 1150.49L-53.8456 1148.48L-56.3392 1146.47L-58.7897 1144.44L-61.1979 1142.41L-63.5643 1140.37L-65.8899 1138.33L-68.1754 1136.29L-70.4218 1134.26L-72.6301 1132.22L-74.8011 1130.19L-76.9359 1128.17L-79.0357 1126.15L-81.1014 1124.14L-83.1343 1122.14L-85.1353 1120.15L-87.1057 1118.17L-89.0466 1116.21L-90.9591 1114.26L-92.8444 1112.32L-94.7036 1110.39L-96.5378 1108.48L-98.3481 1106.59L-100.136 1104.71L-101.902 1102.84L-103.647 1100.99L-105.372 1099.15L-107.079 1097.33L-108.768 1095.53L-110.441 1093.74L-112.097 1091.96L-113.739 1090.2L-115.366 1088.45L-116.981 1086.71L-118.582 1084.99L-120.172 1083.28L-121.751 1081.58L-123.32 1079.89L-124.879 1078.22L-126.428 1076.55L-127.969 1074.89L-129.501 1073.24L-131.025 1071.6L-132.541 1069.97L-134.05 1068.34L-135.551 1066.72L-137.045 1065.1L-138.532 1063.48L-140.011 1061.87L-141.483 1060.26L-142.948 1058.65L-144.405 1057.04L-145.855 1055.42L-147.297 1053.81L-148.732 1052.19L-150.158 1050.57L-151.576 1048.95L-152.986 1047.32L-154.387 1045.69L-155.779 1044.05L-157.161 1042.4L-158.534 1040.74L-159.896 1039.08L-161.247 1037.41L-162.587 1035.73L-163.916 1034.04L-165.232 1032.34L-166.535 1030.63L-167.824 1028.9L-169.099 1027.17L-170.358 1025.42L-171.601 1023.66L-172.827 1021.89L-174.034 1020.1L-175.223 1018.3L-176.39 1016.48L-177.536 1014.65L-178.658 1012.8L-179.756 1010.94L-180.828 1009.06L-181.873 1007.16L-182.89 1005.25L-183.878 1003.32L-184.834 1001.38L-185.759 999.421L-186.651 997.446L-187.508 995.455L-188.33 993.449L-189.115 991.428L-189.863 989.393L-190.572 987.344L-191.241 985.283L-191.869 983.208L-192.456 981.122L-193 979.025L-193.501 976.917L-193.958 974.8L-194.371 972.674L-194.738 970.541L-195.059 968.4L-195.334 966.254L-195.561 964.103L-195.742 961.949L-195.876 959.791L-195.962 957.632L-196 955.472L-195.991 953.313L-195.934 951.156L-195.83 949.002L-195.68 946.851L-195.482 944.706L-195.239 942.566L-194.951 940.434L-194.618 938.31L-194.241 936.196L-193.821 934.092L-193.359 931.999L-192.857 929.918L-192.315 927.85L-191.735 925.796L-191.119 923.757L-190.468 921.732L-189.783 919.724L-189.069 917.732L-188.325 915.756L-187.556 913.797L-186.763 911.856L-185.95 909.931L-185.119 908.022L-184.273 906.131L-183.416 904.255L-182.551 902.394L-181.68 900.548L-180.807 898.715L-179.935 896.895L-179.067 895.085L-178.206 893.286L-177.356 891.494L-176.519 889.708L-175.699 887.927L-174.897 886.149L-174.116 884.371L-173.36 882.59L-172.629 880.806L-171.926 879.016L-171.253 877.216L-170.611 875.405L-170.002 873.58L-169.426 871.739L-168.885 869.879L-168.378 867.998L-167.907 866.093L-167.47 864.162L-167.067 862.203L-166.698 860.214L-166.362 858.192L-166.056 856.137L-165.78 854.046L-165.53 851.918L-165.306 849.753L-165.104 847.548L-164.921 845.304L-164.754 843.019L-164.601 840.694L-164.457 838.329L-164.32 835.924L-164.186 833.478L-164.051 830.994L-163.911 828.471L-163.764 825.911L-163.604 823.316L-163.428 820.686L-163.232 818.025L-163.012 815.333L-162.765 812.614L-162.486 809.87L-162.172 807.104L-161.82 804.318L-161.425 801.517L-160.984 798.702L-160.495 795.879L-159.953 793.05L-159.357 790.219L-158.702 787.39L-157.988 784.567L-157.211 781.755L-156.369 778.956L-155.46 776.177L-154.483 773.42L-153.436 770.69L-152.318 767.991L-151.129 765.327L-149.867 762.702L-148.532 760.12L-147.124 757.586L-145.643 755.102L-144.09 752.673L-142.464 750.302L-140.768 747.992L-139.001 745.746L-137.166 743.567L-135.264 741.457L-133.296 739.42L-131.265 737.457L-129.172 735.569L-127.02 733.76L-124.811 732.03L-122.547 730.382L-120.231 728.815L-117.866 727.333L-115.453 725.935L-112.995 724.622L-110.496 723.395L-107.958 722.254L-105.383 721.199L-102.776 720.231L-100.137 719.349L-97.4709 718.552L-94.7799 717.84L-92.067 717.212L-89.335 716.666L-86.5866 716.2L-83.8247 715.814L-81.0519 715.506L-78.2708 715.272L-75.4839 715.112L-72.6937 715.022L-69.9024 715L-67.1124 715.043L-64.3255 715.148L-61.5438 715.313L-58.7691 715.533L-56.003 715.807L-53.2469 716.13L-50.5023 716.5L-47.7703 716.912L-45.0518 717.365L-42.3478 717.855L-39.6589 718.378L-36.9857 718.932L-34.3286 719.514L-31.6879 720.121L-29.0636 720.751L-26.4559 721.4L-23.8645 722.068L-21.2894 722.752L-18.7303 723.448L-16.1867 724.157L-13.6582 724.874L-11.1442 725.598L-8.64406 726.328L-6.15694 727.061L-3.68202 727.794L-1.21841 728.528L1.23492 729.259L3.67903 729.986L6.11505 730.708L8.54417 731.423L10.9677 732.13L13.3868 732.828L15.8028 733.516L18.2172 734.192L20.6313 734.857L23.0464 735.51L25.464 736.15L27.8855 736.777L30.3123 737.391L32.7457 737.991L35.1872 738.578L37.638 739.152L40.0993 739.714L42.5726 740.264L45.0589 740.802L47.5594 741.33L50.0752 741.848L52.6072 742.358L55.1564 742.86L57.7237 743.357L60.3098 743.848L62.9153 744.337L65.541 744.823L68.1871 745.31L70.8542 745.798L73.5425 746.29L76.2523 746.787L78.9835 747.292L81.7361 747.805L84.51 748.33L87.3051 748.868L90.1211 749.421L92.9578 749.991L95.8151 750.579L98.6926 751.187L101.59 751.816L104.508 752.468L107.445 753.144L110.402 753.844L113.379 754.571L116.374 755.325L119.389 756.107L122.422 756.919L125.474 757.761L128.544 758.634L131.632 759.54L134.738 760.479L137.861 761.452L141.001 762.461L144.158 763.506L147.331 764.588L150.52 765.709L153.723 766.869L156.941 768.069L160.172 769.312L163.416 770.597L166.671 771.925L169.938 773.299L173.214 774.719L176.499 776.186L179.791 777.701L183.088 779.266L186.39 780.882L189.694 782.549L192.999 784.27L196.303 786.045L199.604 787.875L202.899 789.762L206.187 791.706L209.464 793.709L212.73 795.772L215.98 797.895L219.212 800.079L222.424 802.325L225.613 804.633L228.777 807.004L231.912 809.439L235.017 811.937L238.088 814.498L241.123 817.124L244.12 819.813L247.075 822.565L249.986 825.38L252.85 828.259L255.666 831.199L258.431 834.201L261.142 837.264L263.797 840.387L266.393 843.569L268.93 846.809L271.403 850.107L273.812 853.46L276.155 856.868L278.429 860.33L280.633 863.843L282.765 867.407L284.824 871.021L286.807 874.681L288.713 878.388L290.541 882.138L292.289 885.931L293.957 889.765L295.543 893.637L297.045 897.547L298.463 901.491L299.796 905.469L301.043 909.477L302.203 913.515L303.276 917.58L304.259 921.67L305.154 925.784L305.959 929.918" fill="url(#paint4_linear_11_2)"/>
</g>
<defs>
<filter id="filter0_d_11_2" x="0" y="0" width="1943" height="1063" filterUnits="userSpaceOnUse" color-interpolation-filters="sRGB">
<feFlood flood-opacity="0" result="BackgroundImageFix"/>
<feColorMatrix in="SourceAlpha" type="matrix" values="0 0 0 0 0 0 0 0 0 0 0 0 0 0 0 0 0 0 127 0" result="hardAlpha"/>
<feOffset dy="4"/>
<feGaussianBlur stdDeviation="2"/>
<feComposite in2="hardAlpha" operator="out"/>
<feColorMatrix type="matrix" values="0 0 0 0 0 0 0 0 0 0 0 0 0 0 0 0 0 0 0.25 0"/>
<feBlend mode="normal" in2="BackgroundImageFix" result="effect1_dropShadow_11_2"/>
<feBlend mode="normal" in="SourceGraphic" in2="effect1_dropShadow_11_2" result="shape"/>
</filter>
<linearGradient id="paint0_linear_11_2" x1="1124.34" y1="831.501" x2="1102.39" y2="1301.49" gradientUnits="userSpaceOnUse">
<stop stop-color="#094398"/>
<stop offset="1" stop-color="white"/>
</linearGradient>
<linearGradient id="paint1_linear_11_2" x1="2036.94" y1="989.507" x2="2340.75" y2="687.234" gradientUnits="userSpaceOnUse">
<stop stop-color="#094398"/>
<stop offset="1" stop-color="#FDFDFD"/>
</linearGradient>
<linearGradient id="paint2_linear_11_2" x1="-4326.4" y1="-8329.67" x2="-3963.07" y2="-8582.35" gradientUnits="userSpaceOnUse">
<stop stop-color="#3D8BFD"/>
<stop offset="0.3125" stop-color="#D5E6FF"/>
<stop offset="0.78125" stop-color="#D5E6FF"/>
<stop offset="1" stop-color="white"/>
</linearGradient>
<linearGradient id="paint3_linear_11_2" x1="-2958.6" y1="2630.35" x2="-2578.82" y2="2988.67" gradientUnits="userSpaceOnUse">
<stop stop-color="white"/>
<stop offset="1" stop-color="#0A58CA"/>
</linearGradient>
<linearGradient id="paint4_linear_11_2" x1="395.738" y1="323.281" x2="665.876" y2="731.357" gradientUnits="userSpaceOnUse">
<stop stop-color="#3D8BFD"/>
<stop offset="1" stop-color="#C5E4FE"/>
</linearGradient>
<clipPath id="clip0_11_2">
<rect width="1935" height="1055" fill="white" transform="translate(4)"/>
</clipPath>
</defs>
</svg>
