<svg width="184" height="296" viewBox="0 0 184 296" fill="none" xmlns="http://www.w3.org/2000/svg">
<g id="navBG" clip-path="url(#clip0_10_3)">
<rect id="Rectangle 1" x="-13" width="200" height="301" fill="white"/>
<path id="Vector" fill-rule="evenodd" clip-rule="evenodd" d="M65.4288 226.682V226.682L65.3464 227.701L65.3108 228.72L65.3237 229.74L65.3864 230.764L65.4994 231.794L65.6631 232.834L65.877 233.884L66.1401 234.948L66.4509 236.029L66.8071 237.126L67.2062 238.244L67.6446 239.383L68.1186 240.545L68.6238 241.73L69.1556 242.941L69.7087 244.177L70.2778 245.438L70.8575 246.725L71.4423 248.037L72.0268 249.374L72.606 250.734L73.1748 252.117L73.7278 253.522L74.2589 254.946L74.7616 256.387L75.2294 257.842L75.6558 259.308L76.0342 260.782L76.3583 262.259L76.6223 263.735L76.8206 265.207L76.948 266.669L77 268.116L76.9727 269.545L76.8626 270.95L76.6672 272.327L76.3843 273.671L76.0127 274.977L75.5516 276.242L75.0011 277.462L74.3618 278.632L73.6351 279.749L72.823 280.81L71.9278 281.814L70.9527 282.756L69.9013 283.636L68.7777 284.452L67.5863 285.204L66.3321 285.891L65.0202 286.513L63.6562 287.071L62.2458 287.566L60.795 287.999L59.3098 288.374L57.7965 288.692L56.2611 288.957L54.7099 289.172L53.1491 289.341L51.5846 289.469L50.0222 289.56L48.4678 289.621L46.9267 289.655L45.404 289.67L43.9046 289.67L42.4329 289.662L40.993 289.653L39.5885 289.648L38.2226 289.654L36.898 289.678L35.617 289.725L34.3812 289.801L33.1919 289.913L32.0497 290.067L30.9547 290.266L29.9065 290.516L28.9041 290.822L27.9462 291.186L27.0306 291.613L26.155 292.104L25.3166 292.662L24.5119 293.288L23.7374 293.982L22.9891 294.742L22.2627 295.569L21.5536 296.459L20.8573 297.41L20.169 298.417L19.4839 299.477L18.7972 300.583L18.1044 301.729L17.401 302.908L16.6828 304.114L15.9459 305.338L15.1868 306.574L14.4026 307.812L13.5906 309.046L12.749 310.267L11.8763 311.47L10.9716 312.649L10.0348 313.799L9.06596 314.916L8.06535 315.996L7.03363 317.036L5.97162 318.033L4.88035 318.983L3.76102 319.885L2.615 320.736L1.44381 321.535L0.249039 322.28L-0.967598 322.969L-2.20435 323.604L-3.4594 324.182L-4.73092 324.704L-6.01707 325.17L-7.31603 325.581L-8.62601 325.937L-9.94526 326.239L-11.2721 326.489L-12.6049 326.687L-13.9422 326.836L-15.2824 326.936L-16.6243 326.991L-17.9665 327L-19.3079 326.967L-20.6475 326.892L-21.9843 326.779L-23.3173 326.628L-24.6457 326.441L-25.969 326.221L-27.2863 325.968L-28.5972 325.685L-29.9012 325.372L-31.1977 325.031L-32.4863 324.664L-33.7666 324.272L-35.0384 323.854L-36.3011 323.413L-37.5546 322.95L-38.7984 322.464L-40.0322 321.956L-41.2558 321.428L-42.4687 320.879L-43.6705 320.309L-44.861 319.72L-46.0397 319.11L-47.2063 318.481L-48.3602 317.832L-49.5011 317.164L-50.6284 316.477L-51.7418 315.77L-52.8406 315.043L-53.9244 314.298L-54.9926 313.533L-56.0446 312.749L-57.0798 311.945L-58.0976 311.122L-59.0974 310.28L-60.0783 309.418L-61.0397 308.537L-61.9807 307.636L-62.9005 306.715L-63.7982 305.774L-64.6728 304.813L-65.5231 303.831L-66.3482 302.829L-67.1467 301.806L-67.9175 300.761L-68.6592 299.696L-69.3704 298.608L-70.0499 297.5L-70.6962 296.369L-71.308 295.217L-71.8843 294.044L-72.4239 292.851L-72.9263 291.638L-73.391 290.406L-73.8182 289.159L-74.2086 287.897L-74.563 286.623L-74.8816 285.338L-75.1643 284.044L-75.4103 282.742L-75.6189 281.431L-75.7888 280.111L-75.9191 278.785L-76.0087 277.451L-76.0567 276.11L-76.0624 274.764L-76.0256 273.413L-75.9462 272.06L-75.8246 270.704L-75.6617 269.349L-75.4588 267.996L-75.2175 266.648L-74.9402 265.306L-74.6292 263.974L-74.2878 262.652L-73.9193 261.345L-73.5275 260.055L-73.1164 258.783L-72.6906 257.531L-72.2544 256.303L-71.8128 255.1L-71.3705 253.922L-70.9326 252.773L-70.5041 251.652L-70.0898 250.561L-69.6946 249.501L-69.3232 248.47L-68.9801 247.47L-68.6697 246.5L-68.396 245.559L-68.1627 244.646L-67.9732 243.76L-67.8305 242.9L-67.7374 242.064L-67.696 241.249L-67.7083 240.455L-67.7758 239.678L-67.8993 238.916L-68.0796 238.166L-68.3169 237.426L-68.6111 236.694L-68.9616 235.967L-69.3674 235.241L-69.8275 234.515L-70.3402 233.785L-70.9038 233.05L-71.5163 232.306L-72.1753 231.552L-72.8784 230.784L-73.623 230.002L-74.4064 229.202L-75.2257 228.384L-76.0782 227.544L-76.9608 226.682L-77.8706 225.797L-78.8047 224.886L-79.7602 223.949L-80.7343 222.984L-81.724 221.992L-82.7267 220.97L-83.7396 219.918L-84.7601 218.835L-85.7854 217.722L-86.813 216.578L-87.8402 215.402L-88.8643 214.195L-89.8825 212.957L-90.8918 211.687L-91.8892 210.386L-92.8713 209.055L-93.8343 207.694L-94.7743 206.305L-95.6867 204.889L-96.5663 203.448L-97.4079 201.983L-98.2063 200.498L-98.9568 198.995L-99.655 197.477L-100.297 195.945L-100.878 194.405L-101.395 192.858L-101.845 191.307L-102.225 189.757L-102.532 188.211L-102.765 186.671L-102.921 185.142L-103 183.626L-103 182.128L-102.921 180.649L-102.763 179.194L-102.526 177.766L-102.211 176.366L-101.818 174.998L-101.35 173.664L-100.807 172.367L-100.193 171.108L-99.5089 169.889L-98.758 168.711L-97.9431 167.577L-97.0674 166.486L-96.1343 165.439L-95.1471 164.438L-94.1097 163.481L-93.0259 162.569L-91.8994 161.701L-90.7342 160.877L-89.5342 160.095L-88.3033 159.354L-87.0455 158.653L-85.7646 157.991L-84.4643 157.365L-83.1483 156.773L-81.82 156.213L-80.4827 155.684L-79.1398 155.181L-77.794 154.704L-76.4483 154.249L-75.1051 153.813L-73.7668 153.395L-72.4355 152.991L-71.1129 152.599L-69.8008 152.217L-68.5003 151.841L-67.2127 151.47L-65.9387 151.102L-64.6789 150.734L-63.4336 150.365L-62.2029 149.993L-60.9866 149.617L-59.7844 149.235L-58.5956 148.848L-57.4196 148.453L-56.2553 148.053L-55.1016 147.645L-53.9573 147.231L-52.821 146.813L-51.6912 146.39L-50.5665 145.965L-49.4451 145.539L-48.3256 145.115L-47.2064 144.696L-46.0859 144.284L-44.9629 143.882L-43.8359 143.494L-42.7039 143.123L-41.5658 142.773L-40.4209 142.447L-39.2688 142.148L-38.1092 141.88L-36.9421 141.645L-35.7679 141.446L-34.5873 141.284L-33.4012 141.159L-32.2109 141.071L-31.0178 141.019L-29.8233 141L-28.6286 141.014L-27.4349 141.058L-26.2431 141.133L-25.0542 141.236L-23.8691 141.367L-22.6884 141.524L-21.513 141.708L-20.3435 141.918L-19.1805 142.153L-18.0247 142.413L-16.8766 142.698L-15.7368 143.008L-14.6058 143.342L-13.4844 143.701L-12.3729 144.083L-11.2721 144.489L-10.1824 144.919L-9.10435 145.37L-8.03843 145.843L-6.98509 146.337L-5.94469 146.85L-4.91753 147.38L-3.90383 147.926L-2.9037 148.487L-1.91711 149.059L-0.943941 149.641L0.0160805 150.23L0.963356 150.825L1.89847 151.421L2.82214 152.017L3.73523 152.609L4.63877 153.195L5.53394 153.772L6.42206 154.337L7.30456 154.888L8.18302 155.422L9.05907 155.937L9.93449 156.431L10.8111 156.902L11.6907 157.348L12.5752 157.767L13.4664 158.16L14.3663 158.524L15.2765 158.861L16.1988 159.168L17.1348 159.448L18.086 159.7L19.0537 159.925L20.0391 160.125L21.0433 160.301L22.067 160.454L23.1109 160.588L24.1753 160.703L25.2606 160.803L26.3666 160.891L27.4933 160.968L28.64 161.038L29.8062 161.103L30.9912 161.167L32.1938 161.233L33.4129 161.304L34.6472 161.382L35.8952 161.47L37.1553 161.572L38.426 161.689L39.7053 161.824L40.9914 161.98L42.2824 162.159L43.5762 162.362L44.8707 162.592L46.1638 162.851L47.4531 163.14L48.7363 163.461L50.0109 163.816L51.2741 164.206L52.523 164.633L53.7548 165.098L54.9669 165.602L56.1566 166.145L57.3213 166.729L58.4585 167.354L59.5657 168.019L60.6406 168.725L61.6811 169.471L62.685 170.257L63.6504 171.082L64.5755 171.945L65.4586 172.846L66.2982 173.783L67.0928 174.755L67.8414 175.761L68.5429 176.799L69.1962 177.867L69.8008 178.964L70.3559 180.088L70.8613 181.238L71.3165 182.411L71.7216 183.605L72.0765 184.819L72.3816 186.05L72.637 187.296L72.8435 188.557L73.0017 189.828L73.1124 191.109L73.1767 192.398L73.1957 193.692L73.1709 194.989L73.1038 196.288L72.996 197.588L72.8495 198.885L72.6663 200.178L72.4487 201.466L72.199 202.748L71.9199 204.02L71.6142 205.284L71.2848 206.536L70.9349 207.776L70.5677 209.003L70.1867 210.216L69.7955 211.414L69.3978 212.597L68.9975 213.764L68.5984 214.916L68.2046 216.052L67.8202 217.172L67.4491 218.277L67.0955 219.367L66.7633 220.443L66.4565 221.507L66.1789 222.559L65.934 223.601L65.7253 224.634L65.556 225.661L65.4288 226.682" fill="url(#paint0_linear_10_3)"/>
<path id="Vector_2" fill-rule="evenodd" clip-rule="evenodd" d="M218.464 113.447V113.447L218.388 113.953L218.329 114.459L218.292 114.964L218.277 115.469L218.287 115.977L218.322 116.488L218.384 117.003L218.473 117.524L218.59 118.052L218.733 118.588L218.903 119.134L219.098 119.69L219.316 120.257L219.556 120.837L219.815 121.43L220.091 122.036L220.38 122.656L220.68 123.29L220.987 123.937L221.299 124.598L221.612 125.273L221.924 125.96L222.234 126.66L222.54 127.373L222.84 128.097L223.131 128.834L223.412 129.58L223.679 130.336L223.93 131.101L224.162 131.872L224.372 132.648L224.557 133.427L224.714 134.208L224.84 134.987L224.932 135.762L224.986 136.531L225 137.291L224.972 138.038L224.898 138.77L224.778 139.484L224.609 140.177L224.39 140.845L224.12 141.487L223.799 142.098L223.426 142.677L223.001 143.22L222.525 143.727L222 144.194L221.427 144.621L220.808 145.006L220.145 145.347L219.442 145.645L218.7 145.9L217.924 146.11L217.117 146.279L216.284 146.405L215.427 146.491L214.552 146.539L213.662 146.551L212.762 146.529L211.856 146.477L210.949 146.398L210.045 146.295L209.147 146.174L208.26 146.036L207.387 145.888L206.532 145.732L205.697 145.575L204.885 145.419L204.099 145.271L203.341 145.133L202.613 145.011L201.915 144.909L201.249 144.83L200.615 144.778L200.013 144.758L199.444 144.77L198.905 144.82L198.397 144.908L197.918 145.037L197.467 145.208L197.041 145.422L196.639 145.681L196.258 145.983L195.896 146.33L195.55 146.719L195.218 147.151L194.896 147.623L194.583 148.135L194.275 148.682L193.97 149.264L193.664 149.878L193.357 150.52L193.045 151.188L192.725 151.878L192.398 152.588L192.059 153.314L191.708 154.054L191.344 154.804L190.964 155.562L190.569 156.324L190.157 157.087L189.726 157.846L189.277 158.598L188.808 159.339L188.319 160.063L187.811 160.766L187.282 161.445L186.734 162.096L186.166 162.715L185.58 163.298L184.977 163.843L184.357 164.348L183.722 164.809L183.073 165.225L182.413 165.595L181.741 165.918L181.061 166.193L180.373 166.42L179.68 166.6L178.982 166.732L178.282 166.819L177.581 166.861L176.88 166.86L176.182 166.818L175.486 166.736L174.794 166.619L174.107 166.467L173.426 166.283L172.752 166.071L172.084 165.833L171.424 165.572L170.771 165.29L170.126 164.992L169.489 164.679L168.859 164.354L168.236 164.02L167.62 163.679L167.01 163.333L166.406 162.985L165.807 162.637L165.212 162.289L164.621 161.944L164.033 161.604L163.447 161.267L162.863 160.937L162.28 160.612L161.697 160.293L161.115 159.98L160.532 159.673L159.949 159.371L159.365 159.074L158.781 158.78L158.196 158.488L157.611 158.197L157.027 157.905L156.443 157.612L155.862 157.314L155.283 157.011L154.708 156.7L154.137 156.379L153.573 156.048L153.017 155.704L152.471 155.345L151.935 154.97L151.411 154.578L150.902 154.166L150.408 153.735L149.932 153.283L149.475 152.81L149.038 152.316L148.622 151.799L148.229 151.262L147.859 150.703L147.513 150.125L147.192 149.528L146.894 148.914L146.62 148.284L146.369 147.641L146.14 146.987L145.931 146.323L145.741 145.653L145.568 144.979L145.41 144.303L145.265 143.627L145.13 142.954L145.002 142.288L144.877 141.629L144.753 140.981L144.625 140.345L144.49 139.724L144.345 139.118L144.187 138.53L144.013 137.96L143.819 137.408L143.603 136.875L143.363 136.36L143.097 135.864L142.803 135.386L142.48 134.924L142.126 134.477L141.742 134.045L141.327 133.625L140.881 133.215L140.405 132.815L139.899 132.421L139.366 132.032L138.806 131.645L138.221 131.259L137.614 130.871L136.988 130.479L136.344 130.082L135.687 129.676L135.019 129.262L134.344 128.836L133.665 128.398L132.987 127.945L132.312 127.477L131.646 126.994L130.991 126.493L130.352 125.974L129.733 125.438L129.137 124.883L128.569 124.311L128.031 123.72L127.528 123.112L127.063 122.488L126.638 121.848L126.258 121.192L125.923 120.524L125.637 119.843L125.402 119.151L125.22 118.451L125.091 117.743L125.018 117.029L125 116.312L125.038 115.593L125.133 114.875L125.283 114.159L125.489 113.447L125.748 112.741L126.06 112.043L126.423 111.354L126.835 110.677L127.293 110.013L127.795 109.363L128.338 108.729L128.919 108.111L129.535 107.512L130.181 106.93L130.855 106.367L131.553 105.824L132.271 105.3L133.005 104.796L133.752 104.311L134.509 103.845L135.272 103.398L136.038 102.969L136.804 102.557L137.567 102.163L138.325 101.783L139.076 101.419L139.818 101.069L140.548 100.732L141.265 100.407L141.969 100.093L142.659 99.7888L143.334 99.4947L143.994 99.2095L144.64 98.9327L145.272 98.6637L145.889 98.402L146.493 98.1472L147.083 97.8988L147.66 97.6564L148.225 97.4196L148.777 97.188L149.317 96.9612L149.846 96.7388L150.362 96.5202L150.867 96.305L151.361 96.0927L151.842 95.8826L152.312 95.6741L152.77 95.4664L153.216 95.2588L153.65 95.0505L154.071 94.8405L154.479 94.628L154.873 94.4119L155.254 94.1912L155.622 93.9648L155.975 93.7316L156.314 93.4904L156.639 93.2401L156.949 92.9796L157.244 92.7077L157.526 92.4232L157.793 92.1251L158.045 91.8123L158.285 91.4838L158.51 91.1387L158.723 90.7762L158.924 90.3955L159.114 89.9959L159.293 89.577L159.463 89.1383L159.624 88.6796L159.778 88.2008L159.925 87.7018L160.068 87.1828L160.207 86.6442L160.343 86.0864L160.479 85.5099L160.616 84.9156L160.755 84.3043L160.897 83.6771L161.043 83.0349L161.196 82.3791L161.357 81.7109L161.527 81.0318L161.706 80.3431L161.897 79.6463L162.099 78.9429L162.315 78.2345L162.545 77.5225L162.789 76.8084L163.049 76.0936L163.325 75.3795L163.617 74.6675L163.926 73.9588L164.251 73.2547L164.594 72.5562L164.955 71.8645L165.332 71.1807L165.727 70.5058L166.14 69.841L166.57 69.1875L167.017 68.5467L167.481 67.9203L167.963 67.3101L168.461 66.7183L168.977 66.1475L169.51 65.6002L170.059 65.0786L170.624 64.5848L171.204 64.1202L171.798 63.6862L172.406 63.284L173.027 62.9142L173.659 62.5774L174.301 62.274L174.953 62.004L175.612 61.7673L176.279 61.5637L176.952 61.3926L177.629 61.2535L178.31 61.1456L178.994 61.0681L179.68 61.0199L180.366 61L181.053 61.0072L181.739 61.0403L182.423 61.0979L183.106 61.1788L183.785 61.2815L184.462 61.4047L185.135 61.5469L185.804 61.7069L186.468 61.8832L187.128 62.0745L187.784 62.2795L188.434 62.497L189.08 62.7259L189.721 62.9651L190.357 63.2135L190.988 63.4704L191.614 63.735L192.236 64.0065L192.853 64.2845L193.465 64.5686L194.072 64.8584L194.675 65.1538L195.273 65.4547L195.867 65.7614L196.455 66.0739L197.039 66.3927L197.617 66.7181L198.19 67.0508L198.756 67.3914L199.317 67.7405L199.87 68.0989L200.415 68.4675L200.953 68.8471L201.481 69.2384L201.999 69.6425L202.507 70.0599L203.002 70.4915L203.486 70.9379L203.956 71.3996L204.411 71.877L204.851 72.3705L205.275 72.8801L205.683 73.4057L206.072 73.9472L206.444 74.504L206.798 75.0754L207.133 75.6606L207.449 76.2585L207.748 76.8677L208.028 77.4867L208.292 78.1138L208.539 78.7473L208.771 79.3852L208.989 80.0253L209.196 80.6657L209.392 81.3042L209.58 81.9387L209.761 82.5673L209.938 83.1883L210.113 83.8001L210.287 84.4015L210.462 84.9917L210.64 85.5702L210.821 86.1365L211.007 86.6904L211.2 87.2317L211.399 87.7605L211.607 88.277L211.824 88.7815L212.05 89.2746L212.286 89.7568L212.532 90.2289L212.788 90.6917L213.055 91.1462L213.331 91.5933L213.616 92.0343L213.91 92.47L214.212 92.9018L214.521 93.3308L214.836 93.7582L215.155 94.1851L215.477 94.6127L215.8 95.0421L216.124 95.4744L216.445 95.9104L216.763 96.3511L217.074 96.7974L217.379 97.2498L217.674 97.709L217.957 98.1755L218.227 98.6495L218.483 99.1314L218.721 99.6212L218.942 100.119L219.143 100.624L219.323 101.137L219.482 101.657L219.618 102.183L219.73 102.715L219.819 103.252L219.885 103.794L219.927 104.34L219.946 104.888L219.942 105.438L219.917 105.989L219.873 106.54L219.809 107.091L219.73 107.64L219.635 108.186L219.528 108.73L219.412 109.271L219.288 109.807L219.16 110.339L219.03 110.867L218.902 111.391L218.779 111.91L218.663 112.426L218.557 112.938L218.464 113.447" fill="url(#paint1_linear_10_3)"/>
<path id="Vector_3" fill-rule="evenodd" clip-rule="evenodd" d="M86.5624 -8.20692V-8.20692L86.6067 -7.72711L86.6514 -7.24609L86.696 -6.76372L86.7397 -6.27991L86.7819 -5.79459L86.8219 -5.30771L86.859 -4.81927L86.8929 -4.32926L86.9229 -3.83773L86.9485 -3.34473L86.9694 -2.85031L86.9852 -2.35455L86.9955 -1.85755L87 -1.35942L86.9984 -0.860256L86.9903 -0.360204L86.9754 0.140585L86.9534 0.641942L86.9242 1.14373L86.8876 1.64581L86.8438 2.14814L86.7933 2.65068L86.7365 3.1535L86.6739 3.65667L86.6063 4.16037L86.5344 4.66478L86.4589 5.17017L86.3805 5.67684L86.3 6.18512L86.2183 6.69543L86.1363 7.20826L86.0548 7.72416L85.9747 8.2437L85.8969 8.76755L85.8223 9.29634L85.7514 9.83079L85.685 10.3716L85.6234 10.9193L85.5672 11.4748L85.5165 12.0385L85.4714 12.6111L85.4319 13.1931L85.3978 13.785L85.3689 14.3871L85.3446 14.9998L85.3245 15.6233L85.3078 16.2577L85.2937 16.9031L85.2813 17.5595L85.2696 18.2266L85.2577 18.9043L85.2442 19.5921L85.2281 20.2895L85.2081 20.9961L85.1828 21.711L85.1511 22.4337L85.1115 23.163L85.0629 23.8982L85.0037 24.6382L84.9329 25.3818L84.8491 26.1278L84.7511 26.875L84.6377 27.622L84.508 28.3674L84.3607 29.1099L84.195 29.848L84.01 30.5801L83.8048 31.3048L83.5788 32.0206L83.3314 32.7258L83.062 33.4191L82.7702 34.0989L82.4557 34.7637L82.1183 35.4122L81.7578 36.0427L81.3743 36.6541L80.9678 37.245L80.5385 37.8142L80.0868 38.3604L79.6129 38.8826L79.1174 39.3798L78.6009 39.851L78.0639 40.2953L77.5071 40.712L76.9314 41.1005L76.3377 41.4601L75.7268 41.7905L75.0998 42.0913L74.4576 42.3623L73.8013 42.6033L73.1321 42.8143L72.451 42.9955L71.7594 43.147L71.0582 43.2692L70.3488 43.3625L69.6323 43.4275L68.91 43.4649L68.183 43.4755L67.4525 43.4602L66.7198 43.4199L65.9859 43.356L65.252 43.2696L64.5191 43.1621L63.7884 43.0351L63.0608 42.8901L62.3372 42.7288L61.6184 42.5527L60.9051 42.3633L60.1979 42.1617L59.4973 41.9492L58.8036 41.7268L58.1172 41.4954L57.4384 41.2557L56.7672 41.0083L56.104 40.7538L55.4486 40.4926L54.8013 40.2249L54.162 39.951L53.5308 39.6709L52.9077 39.3849L52.2927 39.0928L51.6858 38.7948L51.087 38.4908L50.4965 38.1808L49.9141 37.8649L49.3399 37.5432L48.774 37.2159L48.2164 36.8831L47.6671 36.5451L47.1262 36.2023L46.5937 35.8549L46.0696 35.5034L45.5538 35.1483L45.0463 34.7901L44.5472 34.4294L44.0562 34.0669L43.5733 33.7031L43.0983 33.3389L42.6311 32.9749L42.1715 32.6118L41.7192 32.2505L41.2739 31.8916L40.8353 31.5359L40.4032 31.1841L39.9771 30.837L39.5566 30.4952L39.1414 30.1594L38.7309 29.8302L38.3247 29.5082L37.9223 29.1939L37.5232 28.8878L37.127 28.5904L36.733 28.3019L36.3407 28.0228L35.9497 27.7532L35.5593 27.4933L35.1692 27.2432L34.7787 27.0031L34.3874 26.7729L33.9947 26.5525L33.6004 26.3418L33.2038 26.1406L32.8045 25.9487L32.4023 25.7658L31.9967 25.5916L31.5873 25.4256L31.1739 25.2676L30.7563 25.1169L30.334 24.9732L29.907 24.8359L29.4751 24.7045L29.038 24.5784L28.5956 24.4572L28.148 24.3402L27.6948 24.2268L27.2362 24.1165L26.7721 24.0087L26.3025 23.9029L25.8274 23.7984L25.3468 23.6947L24.8608 23.5913L24.3695 23.4875L23.873 23.383L23.3714 23.277L22.8648 23.1691L22.3536 23.0588L21.8378 22.9454L21.3178 22.8283L20.7938 22.7071L20.2663 22.5811L19.7358 22.4495L19.2028 22.3118L18.6678 22.1671L18.1314 22.0151L17.5941 21.8551L17.0561 21.687L16.5177 21.5106L15.9791 21.3258L15.4403 21.1326L14.9014 20.931L14.3623 20.7212L13.8229 20.5034L13.283 20.2777L12.7424 20.0443L12.2008 19.8036L11.658 19.5556L11.1137 19.3006L10.5675 19.0387L10.0192 18.7701L9.46863 18.4949L8.91538 18.2132L8.35928 17.9249L7.80012 17.6301L7.23774 17.3288L6.67202 17.0208L6.10287 16.7062L5.53026 16.3847L4.95421 16.0561L4.3748 15.7202L3.79218 15.3769L3.20654 15.0258L2.61816 14.6667L2.02737 14.2992L1.43458 13.923L0.840266 13.5378L0.244982 13.1433L-0.350652 12.739L-0.945945 12.3247L-1.54013 11.9L-2.13238 11.4646L-2.72178 11.0181L-3.30737 10.5603L-3.8881 10.0908L-4.46289 9.60949L-5.03056 9.11605L-5.58992 8.61032L-6.13969 8.09216L-6.67856 7.56147L-7.20517 7.01818L-7.71814 6.46229L-8.21605 5.89386L-8.69743 5.31298L-9.16083 4.71981L-9.60478 4.11459L-10.0278 3.49759L-10.4284 2.86917L-10.8051 2.22975L-11.1566 1.5798L-11.4813 0.91989L-11.778 0.250619L-12.0453 -0.427334L-12.282 -1.11322L-12.4869 -1.80624L-12.6589 -2.50553L-12.797 -3.21018L-12.9004 -3.91922L-12.9683 -4.63165L-13 -5.34642L-12.995 -6.06245L-12.9529 -6.77862L-12.8735 -7.49383L-12.7567 -8.20692L-12.6027 -8.91677L-12.4116 -9.62224L-12.184 -10.3222L-11.9204 -11.0156L-11.6217 -11.7014L-11.2887 -12.3785L-10.9226 -13.046L-10.5248 -13.703L-10.0965 -14.3486L-9.63954 -14.9822L-9.15548 -15.6031L-8.64619 -16.2107L-8.11359 -16.8045L-7.55966 -17.3841L-6.98642 -17.9492L-6.39592 -18.4997L-5.79016 -19.0354L-5.17119 -19.5564L-4.54114 -20.0626L-3.90229 -20.5543L-3.25708 -21.0319L-2.60803 -21.4959L-1.95775 -21.947L-1.30884 -22.3859L-0.663933 -22.8135L-0.0255772 -23.2309L0.603738 -23.6392L1.22163 -24.0397L1.82584 -24.4336L2.41416 -24.8223L2.98451 -25.2074L3.53492 -25.5905L4.06358 -25.973L4.56887 -26.3568L5.04937 -26.7435L5.50388 -27.1347L5.93144 -27.5321L6.33134 -27.9372L6.70311 -28.3518L7.04654 -28.7771L7.36166 -29.2147L7.64877 -29.6658L7.90837 -30.1315L8.14123 -30.6129L8.3483 -31.1109L8.53078 -31.6262L8.69003 -32.1594L8.82759 -32.7111L8.94516 -33.2813L9.0446 -33.8703L9.12787 -34.478L9.19704 -35.1041L9.25427 -35.7482L9.30179 -36.4098L9.34188 -37.0881L9.37684 -37.7822L9.409 -38.4912L9.44066 -39.2137L9.47411 -39.9486L9.51162 -40.6943L9.55538 -41.4493L9.60754 -42.212L9.67014 -42.9806L9.74515 -43.7532L9.83443 -44.528L9.93973 -45.3031L10.0627 -46.0763L10.2047 -46.8457L10.3673 -47.6092L10.5515 -48.3648L10.7585 -49.1103L10.9892 -49.8438L11.2444 -50.5633L11.5246 -51.2668L11.8303 -51.9524L12.1618 -52.6183L12.5192 -53.2627L12.9026 -53.884L13.3119 -54.4806L13.7466 -55.051L14.2065 -55.5939L14.6909 -56.1081L15.1992 -56.5925L15.7307 -57.0462L16.2843 -57.4683L16.8592 -57.8582L17.4542 -58.2154L18.0681 -58.5396L18.6999 -58.8306L19.348 -59.0883L20.0113 -59.3129L20.6882 -59.5046L21.3775 -59.6639L22.0777 -59.7914L22.7872 -59.8879L23.5048 -59.9541L24.2289 -59.9911L24.9582 -60L25.6912 -59.9821L26.4267 -59.9387L27.1634 -59.8712L27.9 -59.7812L28.6353 -59.6703L29.3684 -59.5401L30.0982 -59.3922L30.8238 -59.2284L31.5443 -59.0501L32.2592 -58.8587L32.9679 -58.6555L33.6699 -58.4416L34.3649 -58.218L35.0525 -57.9854L35.7326 -57.7446L36.4049 -57.4961L37.0693 -57.2404L37.7258 -56.978L38.3742 -56.709L39.0146 -56.4339L39.6468 -56.1526L40.2709 -55.8652L40.8869 -55.5718L41.4947 -55.2724L42.0944 -54.967L42.6858 -54.6557L43.2691 -54.3384L43.844 -54.0153L44.4107 -53.6865L44.969 -53.3523L45.519 -53.0128L46.0606 -52.6684L46.5937 -52.3195L47.1184 -51.9665L47.6348 -51.6098L48.1427 -51.2501L48.6424 -50.8878L49.1338 -50.5237L49.6171 -50.1584L50.0925 -49.7926L50.56 -49.4269L51.0199 -49.0623L51.4725 -48.6993L51.918 -48.3388L52.3567 -47.9814L52.789 -47.628L53.2152 -47.2793L53.6357 -46.9358L54.0509 -46.5984L54.4614 -46.2676L54.8675 -45.9439L55.2698 -45.628L55.6687 -45.3203L56.0648 -45.0212L56.4586 -44.7311L56.8506 -44.4504L57.2413 -44.1792L57.6313 -43.9177L58.0211 -43.666L58.4112 -43.4243L58.8021 -43.1925L59.1942 -42.9705L59.5881 -42.7583L59.9841 -42.5556L60.3827 -42.3621L60.7843 -42.1777L61.1893 -42.002L61.5979 -41.8346L62.0106 -41.675L62.4275 -41.5229L62.8489 -41.3778L63.275 -41.2391L63.7061 -41.1063L64.1423 -40.9789L64.5837 -40.8563L65.0304 -40.738L65.4825 -40.6233L65.94 -40.5118L66.4031 -40.4027L66.8716 -40.2957L67.3456 -40.19L67.825 -40.0852L68.3098 -39.9806L68.7999 -39.8757L69.2952 -39.7701L69.7955 -39.6631L70.3008 -39.5542L70.8108 -39.4428L71.3252 -39.3285L71.8439 -39.2105L72.3665 -39.0884L72.8925 -38.9615L73.4216 -38.8291L73.9532 -38.6906L74.4867 -38.5452L75.0214 -38.3922L75.5566 -38.2308L76.0912 -38.0603L76.6244 -37.8797L77.1551 -37.6883L77.6821 -37.4851L78.2042 -37.2696L78.7202 -37.0408L79.2288 -36.7983L79.7289 -36.5414L80.2191 -36.2696L80.6982 -35.9825L81.165 -35.6798L81.6183 -35.3613L82.057 -35.0269L82.4801 -34.6764L82.8864 -34.31L83.275 -33.9279L83.6452 -33.5303L83.9962 -33.1175L84.3274 -32.69L84.6381 -32.2484L84.9281 -31.7932L85.197 -31.3252L85.4446 -30.845L85.671 -30.3536L85.8763 -29.8518L86.0606 -29.3404L86.2243 -28.8205L86.3678 -28.293L86.4919 -27.7588L86.5971 -27.2189L86.6842 -26.6743L86.7542 -26.126L86.808 -25.5748L86.8467 -25.0218L86.8714 -24.4677L86.8833 -23.9133L86.8838 -23.3595L86.8739 -22.807L86.855 -22.2563L86.8284 -21.708L86.7955 -21.1628L86.7575 -20.6209L86.7157 -20.0829L86.6712 -19.5489L86.6254 -19.0192L86.5792 -18.4939L86.5338 -17.9731L86.4901 -17.4569L86.449 -16.9452L86.4114 -16.4378L86.3778 -15.9347L86.3489 -15.4355L86.3252 -14.9401L86.3071 -14.4481L86.2948 -13.9593L86.2885 -13.4732L86.2883 -12.9896L86.294 -12.508L86.3056 -12.0281L86.3227 -11.5495L86.3452 -11.0718L86.3724 -10.5947L86.404 -10.1178L86.4395 -9.64089L86.4781 -9.16359L86.5193 -8.68568L86.5624 -8.20692" fill="url(#paint2_linear_10_3)"/>
</g>
<defs>
<linearGradient id="paint0_linear_10_3" x1="127.068" y1="444.988" x2="272.356" y2="335.028" gradientUnits="userSpaceOnUse">
<stop/>
<stop offset="1" stop-color="#637AF2"/>
</linearGradient>
<linearGradient id="paint1_linear_10_3" x1="120" y1="119.5" x2="214.051" y2="134.767" gradientUnits="userSpaceOnUse">
<stop stop-color="#ABB3FF"/>
<stop offset="0.0001" stop-color="#8F9BFF"/>
<stop offset="0.9999"/>
<stop offset="1"/>
</linearGradient>
<linearGradient id="paint2_linear_10_3" x1="-63.0132" y1="-59.3128" x2="-64.4348" y2="-162.778" gradientUnits="userSpaceOnUse">
<stop stop-color="#A7BAFF"/>
<stop offset="1" stop-color="#0D0D0D"/>
</linearGradient>
<clipPath id="clip0_10_3">
<rect width="184" height="296" fill="white"/>
</clipPath>
</defs>
</svg>
