<svg width="200" height="58" viewBox="0 0 200 58" fill="none" xmlns="http://www.w3.org/2000/svg">
<g id="navTextProjects">
<g id="projectsGroup">
<path id="projects1" d="M23.455 25.55C23.455 27.0433 23.105 28.4083 22.405 29.645C21.7283 30.8583 20.69 31.8383 19.29 32.585C17.9133 33.3083 16.2217 33.67 14.215 33.67H10.82V42H3.96V17.325H14.215C16.1983 17.325 17.8783 17.675 19.255 18.375C20.655 19.075 21.705 20.0433 22.405 21.28C23.105 22.5167 23.455 23.94 23.455 25.55ZM13.55 28.21C15.4867 28.21 16.455 27.3233 16.455 25.55C16.455 23.7533 15.4867 22.855 13.55 22.855H10.82V28.21H13.55Z" fill="#084298"/>
<path id="projects2" d="M41.455 42L36.555 32.9H35.82V42H28.96V17.325H39.775C41.7583 17.325 43.4383 17.675 44.815 18.375C46.1917 19.0517 47.23 19.9967 47.93 21.21C48.63 22.4 48.98 23.7417 48.98 25.235C48.98 26.915 48.5133 28.3967 47.58 29.68C46.67 30.94 45.3283 31.8383 43.555 32.375L49.12 42H41.455ZM35.82 28.21H39.215C40.1483 28.21 40.8483 27.9883 41.315 27.545C41.7817 27.1017 42.015 26.46 42.015 25.62C42.015 24.8267 41.77 24.2083 41.28 23.765C40.8133 23.2983 40.125 23.065 39.215 23.065H35.82V28.21Z" fill="#084298"/>
<path id="projects3" d="M66.79 42.245C64.48 42.245 62.3567 41.7083 60.42 40.635C58.4833 39.5383 56.9433 38.0333 55.8 36.12C54.68 34.1833 54.12 32.0017 54.12 29.575C54.12 27.1483 54.68 24.9783 55.8 23.065C56.9433 21.1283 58.4833 19.6233 60.42 18.55C62.3567 17.4767 64.48 16.94 66.79 16.94C69.1233 16.94 71.2467 17.4767 73.16 18.55C75.0967 19.6233 76.625 21.1283 77.745 23.065C78.865 24.9783 79.425 27.1483 79.425 29.575C79.425 32.0017 78.865 34.1833 77.745 36.12C76.625 38.0333 75.0967 39.5383 73.16 40.635C71.2233 41.7083 69.1 42.245 66.79 42.245ZM66.79 35.875C68.54 35.875 69.9167 35.3033 70.92 34.16C71.9467 33.0167 72.46 31.4883 72.46 29.575C72.46 27.615 71.9467 26.075 70.92 24.955C69.9167 23.8117 68.54 23.24 66.79 23.24C65.0167 23.24 63.6283 23.8117 62.625 24.955C61.6217 26.075 61.12 27.615 61.12 29.575C61.12 31.5117 61.6217 33.0517 62.625 34.195C63.6283 35.315 65.0167 35.875 66.79 35.875Z" fill="#084298"/>
<path id="projects4" d="M99.305 17.325V33.67C99.305 36.4467 98.5467 38.57 97.03 40.04C95.5367 41.51 93.4717 42.245 90.835 42.245C88.035 42.245 85.795 41.4633 84.115 39.9C82.4583 38.3367 81.63 36.085 81.63 33.145H88.42C88.4433 35.0817 89.155 36.05 90.555 36.05C91.815 36.05 92.445 35.2567 92.445 33.67V17.325H99.305Z" fill="#084298"/>
<path id="projects5" d="M112.82 22.82V26.845H120.695V32.06H112.82V36.505H121.745V42H105.96V17.325H121.745V22.82H112.82Z" fill="#084298"/>
<path id="projects6" d="M173.545 17.325V22.785H166.965V42H160.105V22.785H153.595V17.325H173.545Z" fill="#084298"/>
<path id="projects7" d="M186.27 42.245C183.4 42.245 181.043 41.5683 179.2 40.215C177.357 38.8383 176.365 36.8783 176.225 34.335H183.54C183.61 35.1983 183.867 35.8283 184.31 36.225C184.753 36.6217 185.325 36.82 186.025 36.82C186.655 36.82 187.168 36.6683 187.565 36.365C187.985 36.0383 188.195 35.595 188.195 35.035C188.195 34.3117 187.857 33.7517 187.18 33.355C186.503 32.9583 185.407 32.515 183.89 32.025C182.28 31.4883 180.973 30.975 179.97 30.485C178.99 29.9717 178.127 29.2367 177.38 28.28C176.657 27.3 176.295 26.0283 176.295 24.465C176.295 22.8783 176.692 21.525 177.485 20.405C178.278 19.2617 179.375 18.3983 180.775 17.815C182.175 17.2317 183.762 16.94 185.535 16.94C188.405 16.94 190.692 17.6167 192.395 18.97C194.122 20.3 195.043 22.1783 195.16 24.605H187.705C187.682 23.8583 187.448 23.2983 187.005 22.925C186.585 22.5517 186.037 22.365 185.36 22.365C184.847 22.365 184.427 22.5167 184.1 22.82C183.773 23.1233 183.61 23.555 183.61 24.115C183.61 24.5817 183.785 24.99 184.135 25.34C184.508 25.6667 184.963 25.9583 185.5 26.215C186.037 26.4483 186.83 26.7517 187.88 27.125C189.443 27.6617 190.727 28.1983 191.73 28.735C192.757 29.2483 193.632 29.9833 194.355 30.94C195.102 31.8733 195.475 33.0633 195.475 34.51C195.475 35.98 195.102 37.2983 194.355 38.465C193.632 39.6317 192.57 40.5533 191.17 41.23C189.793 41.9067 188.16 42.245 186.27 42.245Z" fill="#084298"/>
<path id="projects8" d="M127.12 29.61C127.12 27.1833 127.622 25.025 128.625 23.135C129.652 21.2217 131.098 19.74 132.965 18.69C134.832 17.6167 136.978 17.08 139.405 17.08C142.485 17.08 145.075 17.9083 147.175 19.565C149.275 21.1983 150.628 23.4267 151.235 26.25H143.85C143.407 25.3167 142.788 24.605 141.995 24.115C141.225 23.625 140.327 23.38 139.3 23.38C137.713 23.38 136.442 23.9517 135.485 25.095C134.552 26.215 134.085 27.72 134.085 29.61C134.085 31.5233 134.552 33.0517 135.485 34.195C136.442 35.315 137.713 35.875 139.3 35.875C140.327 35.875 141.225 35.63 141.995 35.14C142.788 34.65 143.407 33.9383 143.85 33.005H151.235C150.628 35.8283 149.275 38.0683 147.175 39.725C145.075 41.3583 142.485 42.175 139.405 42.175C136.978 42.175 134.832 41.65 132.965 40.6C131.098 39.5267 129.652 38.045 128.625 36.155C127.622 34.2417 127.12 32.06 127.12 29.61Z" fill="#084298"/>
</g>
</g>
</svg>
