<svg width="185" height="58" viewBox="0 0 185 58" fill="none" xmlns="http://www.w3.org/2000/svg">
<g id="navTextContact">
<g id="contactGroup">
<path id="contact1" d="M3.12 29.61C3.12 27.1833 3.62167 25.025 4.625 23.135C5.65167 21.2217 7.09833 19.74 8.965 18.69C10.8317 17.6167 12.9783 17.08 15.405 17.08C18.485 17.08 21.075 17.9083 23.175 19.565C25.275 21.1983 26.6283 23.4267 27.235 26.25H19.85C19.4067 25.3167 18.7883 24.605 17.995 24.115C17.225 23.625 16.3267 23.38 15.3 23.38C13.7133 23.38 12.4417 23.9517 11.485 25.095C10.5517 26.215 10.085 27.72 10.085 29.61C10.085 31.5233 10.5517 33.0517 11.485 34.195C12.4417 35.315 13.7133 35.875 15.3 35.875C16.3267 35.875 17.225 35.63 17.995 35.14C18.7883 34.65 19.4067 33.9383 19.85 33.005H27.235C26.6283 35.8283 25.275 38.0683 23.175 39.725C21.075 41.3583 18.485 42.175 15.405 42.175C12.9783 42.175 10.8317 41.65 8.965 40.6C7.09833 39.5267 5.65167 38.045 4.625 36.155C3.62167 34.2417 3.12 32.06 3.12 29.61Z" fill="#0A58CA"/>
<path id="contact2" d="M42.79 42.245C40.48 42.245 38.3567 41.7083 36.42 40.635C34.4833 39.5383 32.9433 38.0333 31.8 36.12C30.68 34.1833 30.12 32.0017 30.12 29.575C30.12 27.1483 30.68 24.9783 31.8 23.065C32.9433 21.1283 34.4833 19.6233 36.42 18.55C38.3567 17.4767 40.48 16.94 42.79 16.94C45.1233 16.94 47.2467 17.4767 49.16 18.55C51.0967 19.6233 52.625 21.1283 53.745 23.065C54.865 24.9783 55.425 27.1483 55.425 29.575C55.425 32.0017 54.865 34.1833 53.745 36.12C52.625 38.0333 51.0967 39.5383 49.16 40.635C47.2233 41.7083 45.1 42.245 42.79 42.245ZM42.79 35.875C44.54 35.875 45.9167 35.3033 46.92 34.16C47.9467 33.0167 48.46 31.4883 48.46 29.575C48.46 27.615 47.9467 26.075 46.92 24.955C45.9167 23.8117 44.54 23.24 42.79 23.24C41.0167 23.24 39.6283 23.8117 38.625 24.955C37.6217 26.075 37.12 27.615 37.12 29.575C37.12 31.5117 37.6217 33.0517 38.625 34.195C39.6283 35.315 41.0167 35.875 42.79 35.875Z" fill="#0A58CA"/>
<path id="contact3" d="M81.815 42H74.955L65.82 28.21V42H58.96V17.325H65.82L74.955 31.29V17.325H81.815V42Z" fill="#0A58CA"/>
<path id="contact4" d="M104.545 17.325V22.785H97.965V42H91.105V22.785H84.595V17.325H104.545Z" fill="#0A58CA"/>
<path id="contact5" d="M123.57 37.975H114.82L113.49 42H106.28L115.275 17.325H123.185L132.145 42H124.9L123.57 37.975ZM121.855 32.725L119.195 24.745L116.57 32.725H121.855Z" fill="#0A58CA"/>
<path id="contact6" d="M134.12 29.61C134.12 27.1833 134.622 25.025 135.625 23.135C136.652 21.2217 138.098 19.74 139.965 18.69C141.832 17.6167 143.978 17.08 146.405 17.08C149.485 17.08 152.075 17.9083 154.175 19.565C156.275 21.1983 157.628 23.4267 158.235 26.25H150.85C150.407 25.3167 149.788 24.605 148.995 24.115C148.225 23.625 147.327 23.38 146.3 23.38C144.713 23.38 143.442 23.9517 142.485 25.095C141.552 26.215 141.085 27.72 141.085 29.61C141.085 31.5233 141.552 33.0517 142.485 34.195C143.442 35.315 144.713 35.875 146.3 35.875C147.327 35.875 148.225 35.63 148.995 35.14C149.788 34.65 150.407 33.9383 150.85 33.005H158.235C157.628 35.8283 156.275 38.0683 154.175 39.725C152.075 41.3583 149.485 42.175 146.405 42.175C143.978 42.175 141.832 41.65 139.965 40.6C138.098 39.5267 136.652 38.045 135.625 36.155C134.622 34.2417 134.12 32.06 134.12 29.61Z" fill="#0A58CA"/>
<path id="contact7" d="M180.545 17.325V22.785H173.965V42H167.105V22.785H160.595V17.325H180.545Z" fill="#0A58CA"/>
</g>
</g>
</svg>
